<svg xmlns="http://www.w3.org/2000/svg" viewBox="0 0 119.37 82.94"><defs><style>.cls-1{fill:#eb931d;}</style></defs><title>Asset 21</title><g id="Layer_2" data-name="Layer 2"><g id="Layer_1-2" data-name="Layer 1"><path class="cls-1" d="M-520.36,875a35.74,35.74,0,0,0-2.9,5.66q-1.38,3.3-2.62,5.93c-3.86-.28-7.16-.41-9.87-.41h-7.66q-4,0-8.62.27t-7,.55q1.38-2.75,3-6.14c1-2.25,2.09-4.3,3.1-6.14a37.29,37.29,0,0,0,6.76.76q4.56.21,9,.21h4.08c1.51,0,3,0,4.62-.07s3-.11,4.48-.21A33,33,0,0,0-520.36,875Z" transform="translate(559 -841)"/><path class="cls-1" d="M-439.63,887.23c-1.93,1.1-4.67,2.65-8.21,4.62s-7.43,4.17-11.66,6.56l-13.18,7.45q-6.84,3.87-13,7.38t-10.91,6.35c-3.17,1.89-5.49,3.33-7,4.35v-12q2.76-1.38,7.39-3.86t10.14-5.52l11.39-6.28q5.85-3.24,10.9-6.07t8.76-4.9q3.74-2.07,5.11-2.9c-1-.55-2.9-1.59-5.66-3.11l-9.66-5.31-11.66-6.41q-6.15-3.39-11.66-6.35l-9.59-5.18c-2.72-1.47-4.54-2.43-5.46-2.9V841q3,1.93,8.15,4.83t11.17,6.42q6.07,3.51,12.63,7.17l12.63,7q6.07,3.39,11.18,6.28t8.14,4.55Z" transform="translate(559 -841)"/></g></g></svg>