<svg xmlns="http://www.w3.org/2000/svg" viewBox="0 0 227 540.81"><defs><style>.cls-1{fill:#aab359;}.cls-2{fill:#dd9837;}.cls-3,.cls-7{fill:#caaaab;}.cls-4{fill:#ece5dc;}.cls-5{fill:#54250e;}.cls-6{fill:#fcff35;}.cls-12,.cls-7,.cls-9{stroke:#000;stroke-miterlimit:10;}.cls-7{stroke-width:0.31px;}.cls-8{fill:#eee7e8;}.cls-12,.cls-9{fill:none;}.cls-9{stroke-width:0.5px;}.cls-10{fill:#fff;}.cls-11{fill:#b43200;}.cls-12{stroke-width:0.25px;}</style></defs><title>Asset 29</title><g id="Layer_2" data-name="Layer 2"><g id="Layer_1-2" data-name="Layer 1"><path class="cls-1" d="M220,474.31c-25.5-13.5-26.5-122.5-26.5-122.5,5-18-27-97-27-97l-10.5-16c-11-1.5-40.5,16-40.5,16-9-9-48-16.09-48-16.09-9.5-1.41-27,51.59-27,51.59L35,307.81l-2.5,11c11,19-32.5,155.5-32.5,155.5l3,13.5-3,12,9.5,11,15,13.5h9l16,9.5h9c12.5,0,36,7,36,7h25c19-9,46,0,46,0,16-11,29.5-10.5,29.5-10.5l17-7c1.5-12,8-11,8-11l7-12.5-7.5-9Z"/><path class="cls-2" d="M71.8,40.17c-7.5,5.5-24,91-24,91,8.5-22.5,52-23,52-23l40.5-.5c9,.5,36,33,36,33,1-17.5-29.5-100.5-29.5-100.5l-20-15-35,3Z"/><path class="cls-3" d="M68.57,107.51c10.39,1.6,16-25.59,16-25.59,6.4,13.6,32.79,8.8,32.79,8.8l12-8.8c0,12,13.6,25.66,13.6,25.66,1.6,15.93-21.6,23.13-21.6,23.13l-32.79,4Z"/><path class="cls-1" d="M154.16,232.57c-7.5-19.5,0-62,0-62v-6l-3.33-22c-1.67-13.5,10.33-34,10.33-34-.5-5.5-20-8-20-8-1.5,15.5-14,24-14,24l-14.5,2.5-22-1-10.5-11-5-14.5h-4l-13,8c7.5,7.5,8,44.5,8,44.5l-4.5,11,1.5,11,4.5,6.5c6,3.5,4.5,31.5,4.5,31.5l-3,17,15,7,19,6.5h20.5Z"/><path class="cls-4" d="M158.44,204.35c-1.5-13-51.5-18.5-51.5-18.5-5-3-26.5,9.25-26.5,9.25-1.63-3.63,4.5-32.25,4.5-32.25l-.38-1.38c-2-2-8.37,13.5-8.37,13.5l-2.88,8.63c-2.25-2.38,0-21.13,0-21.13-1.5-.87-5.87,11.75-5.87,11.75-1.25.75,0,17.25,0,17.25-2,.13-6.25,6.63-6.25,6.63v4.62c-4,2.63-4.25,10.25-4.25,10.25,3.62,4.13,15.87,1.63,15.87,1.63l4.75-3.75,3.5,6.12,8,1.38,15.25,1.25L129.94,224l11.25.75c4.75,1.13,21.37-4.37,21.37-4.37l4-1.88-1.25-14.12c.13-4.88-4-3.63-4-3.63Z"/><path class="cls-1" d="M58.89,108.31c4.5,0,9.5,44,9.5,44l-9.5,21-7.5,19-4,16,14,5.5h34.5c-4.5,2.5,0,13,0,13l-48.5,7.47H27.89l-10.5-11c-5-15,34.5-104,34.5-104Z"/><path class="cls-1" d="M158.69,104.31c-4.5,0-9.5,44-9.5,44l9.5,21,7.5,19,4,16-14,5.5h-34.5c4.5,2.5,0,13,0,13l48.5,7.47h19.5l10.5-11c5-15-34.5-104-34.5-104Z"/><path class="cls-5" d="M67.5,238.72l4-7.41,33,10c-2-5.5,13.5-2.61,13.5-2.61l3,2.61,33-10,2,7.5-3.38-.11-4.78,1.13-5.61,1.84-9,3.82L124.11,250l-8.61,4.77-5.31-3.63-8.79-3.72-20-5.77Z"/><ellipse class="cls-6" cx="113.5" cy="244.44" rx="11.68" ry="10.26"/><path class="cls-3" d="M117.66,208.22c-.17-2.17-8.17-4.92-8.17-4.92l-4.91-2.25L103,199.47c-1.41,0,.59,5.83.59,5.83l9,5.33-8.5.59h-5c-.25-2.25-6.92-6.42-6.92-6.42-1.58.08-.67,3.08-.67,3.08l5.67,5.5-7.17-6c-1-.5-1.91,1.59-1.91,1.59-.09.83,6.66,5.75,6.66,5.75l-7.16-5v2.16l6.33,4.17-6-3.17c-.42.67,2.08,3.17,2.08,3.17l3.34,2.17,5.08,1.33,5.33-.58,11.59-5.17,4.41-5Z"/><path class="cls-3" d="M90.89,213.92c4,2,17-7.5,17-7.5l16-7.5,2.62-.63c3.88-2.75,1.5,3.25,1.5,3.25l-9.62,7.25,10.34-.87,10.41-6c1.62-1,1.12,3.12,1.12,3.12l-12.75,8.63,12.83-7.79,2.3-.84c.87-.25,0,2.5,0,2.5l-11.88,8.63,11.13-7c1.87-.38.5,2.25.5,2.25L133,219.17c2.63-.38,7.5-5,7.5-5,1.38-1,.88,2.5.88,2.5L135.64,222c-.75,2-5.25,2.88-5.25,2.88l-9.75,1H91.39C92.89,222.92,90.89,213.92,90.89,213.92Z"/><ellipse cx="72.25" cy="199.57" rx="2" ry="1" transform="translate(-99.14 74.38) rotate(-33.95)"/><path class="cls-7" d="M80,80.72c1.26,11.33,23.29,22.67,23.29,22.67h14.48c9.45-5.67,20.78-22.67,20.78-22.67V40.42c0-10.07-17-14.48-17-14.48l-12.28-2.52C101.36,20.91,80,36,80,36L76.81,54.28Z"/><path class="cls-2" d="M112.41,26.28c4.5-2,21,7.5,21,7.5v42.5l3.5,62v6l2.5,6.5-9,11c-.5,6,20.5,0,20.5,0l-8-11.5,3-11.5,1-43.55-2-56.95c0-14-28-16.5-28-16.5-5-4.5-42.49,12-42.49,12l-3.5,35,2.5,69,1,9-6,17.67c2,5.33,18,0,18,0l-7-13.17,1-13.5,4-23-.5-44.5,1-29.5c0-7.5,21.5-15,21.5-15Z"/><path class="cls-2" d="M79.66,21.71c0-6.5,21.5-20,21.5-20,5.5-5.5,26.5,4,26.5,4,5,0,12,16,12,16l-60,2.5Z"/><path class="cls-8" d="M72.25,35.39l2.93-15h5.36L86.39,14h2.93l8.77-5h20l4.39,4.28h9.75l2.93,8.91,5.36-4.64,5.36,17.83c-15.6-13.55-29.26-13.19-29.26-13.19C108.33,19,72.25,35.39,72.25,35.39Z"/><circle class="cls-6" cx="109.66" cy="15.01" r="8"/><path class="cls-9" d="M87.64,45.77c2.36-1,4-.83,8.24-.91,2.28,0,5.78-.55,8.26-.09"/><path class="cls-9" d="M115.16,45.18c2.36-1,4-.84,8.24-.92,2.28,0,5.78-.54,8.26-.08"/><circle class="cls-10" cx="95" cy="50.31" r="2.12"/><circle class="cls-10" cx="123.41" cy="50.31" r="2.12"/><ellipse class="cls-11" cx="109.25" cy="86.31" rx="9.5" ry="0.75"/><path class="cls-12" d="M105.8,59.06c1.2,2,0,11,0,11,2-1.5,6,0,6,0-2-2.75-1-11-1-11"/></g></g></svg>