<svg xmlns="http://www.w3.org/2000/svg" viewBox="0 0 1431.07 383.38"><defs><style>.cls-1{fill:#209c55;opacity:0.73;}</style></defs><title>Asset 24</title><g id="Layer_2" data-name="Layer 2"><g id="Layer_1-2" data-name="Layer 1"><path class="cls-1" d="M409.62,1052.76l5.13-13H401L420.25,997,401,1001l21.5-42L404,970l21.25-41.5-19.25,7,20.75-47.75L412.25,894c2.5,3.5,21.75-53,21.75-53,2,3.5,28,47.75,28,47.75l-10.25-3L475,924.5l-20.75.25,35.25,38-26.75-5.5,28,38.75-17-2.25,21.75,41L481,1035l17,30.25-13.25-3.5,2.5,8Z" transform="translate(559 -841)"/><path class="cls-1" d="M-66.36,1167.14l5.13-13H-75l19.25-42.74-19.25,4,21.5-42-18.5,11,21.25-41.5-19.25,7,20.75-47.76-14.5,6.26c2.5,3.5,21.75-53,21.75-53,2,3.5,28,47.74,28,47.74l-10.25-3L-1,1038.88l-20.75.24,35.25,38-26.75-5.5,28,38.76-17-2.26,21.75,41-14.5.26,17,30.24-13.25-3.5,2.5,8Z" transform="translate(559 -841)"/><path class="cls-1" d="M90.53,1126.53l5.13-13H81.91l19.25-42.75-19.25,4,21.5-42-18.5,11,21.25-41.5-19.25,7,20.75-47.75-14.5,6.25c2.5,3.5,21.75-53,21.75-53,2,3.5,28,47.75,28,47.75l-10.25-3,23.25,38.75-20.75.25,35.25,38-26.75-5.5,28,38.75-17-2.25,21.75,41-14.5.25,17,30.25-13.25-3.5,2.5,8Z" transform="translate(559 -841)"/><path class="cls-1" d="M298.51,1069.1l5.13-13H289.89l19.25-42.75-19.25,4,21.5-42-18.5,11,21.25-41.5-19.25,7,20.75-47.75-14.5,6.25c2.5,3.5,21.75-53,21.75-53,2,3.5,28,47.75,28,47.75l-10.25-3,23.25,38.75-20.75.25,35.25,38-26.75-5.5,28,38.75-17-2.25,21.75,41-14.5.25,17,30.25-13.25-3.5,2.5,8Z" transform="translate(559 -841)"/><path class="cls-1" d="M20.16,1205.54l5.13-13H11.54l19.25-42.75-19.25,4,21.5-42-18.5,11,21.25-41.5-19.25,7,20.75-47.75-14.5,6.25c2.5,3.5,21.75-53,21.75-53,2,3.5,28,47.75,28,47.75l-10.25-3,23.25,38.75-20.75.25,35.25,38L73.29,1110l28,38.75-17-2.25,21.75,41-14.5.25,17,30.25-13.25-3.5,2.5,8Z" transform="translate(559 -841)"/><path class="cls-1" d="M-185.4,1109.24l5.13-13H-194l19.25-42.75-19.25,4,21.5-42-18.5,11,21.25-41.5L-189,992l20.75-47.75-14.5,6.25c2.5,3.5,21.75-53,21.75-53,2,3.5,28,47.75,28,47.75l-10.25-3L-120,981l-20.75.25,35.25,38-26.75-5.5,28,38.75-17-2.25,21.75,41-14.5.25,17,30.25-13.25-3.5,2.5,8Z" transform="translate(559 -841)"/><path class="cls-1" d="M-114.1,1141.88l5.13-13h-13.75l19.25-42.75-19.25,4,21.5-42-18.5,11,21.25-41.5-19.25,7L-97,976.87l-14.5,6.25c2.5,3.5,21.75-53,21.75-53,2,3.5,28,47.75,28,47.75l-10.25-3,23.25,38.75-20.75.25,35.25,38-26.75-5.5,28,38.75-17-2.25,21.75,41-14.5.25,17,30.25-13.25-3.5,2.5,8Z" transform="translate(559 -841)"/><path class="cls-1" d="M-265.71,1126.53l5.12-13h-13.75l19.25-42.75-19.25,4,21.5-42-18.5,11,21.25-41.5-19.25,7,20.75-47.75-14.5,6.25c2.5,3.5,21.75-53,21.75-53,2,3.5,28,47.75,28,47.75l-10.25-3,23.25,38.75-20.75.25,35.25,38-26.75-5.5,28,38.75-17-2.25,21.75,41-14.5.25,17,30.25-13.25-3.5,2.5,8Z" transform="translate(559 -841)"/><path class="cls-1" d="M-340,1132l5.13-13h-13.75l19.25-42.75-19.25,4,21.5-42-18.5,11,21.25-41.5-19.25,7,20.75-47.75-14.5,6.25c2.5,3.5,21.75-53,21.75-53,2,3.5,28,47.75,28,47.75l-10.25-3,23.25,38.75-20.75.25,35.25,38-26.75-5.5,28,38.75-17-2.25,21.75,41-14.5.25,17,30.25-13.25-3.5,2.5,8Z" transform="translate(559 -841)"/><path class="cls-1" d="M-462.42,1207.39l5.13-13H-471l19.25-42.75-19.25,4,21.5-42-18.5,11,21.25-41.5-19.25,7,20.75-47.75-14.5,6.25c2.5,3.5,21.75-53,21.75-53,2,3.5,28,47.75,28,47.75l-10.25-3,23.25,38.75-20.75.25,35.25,38-26.75-5.5,28,38.75-17-2.25,21.75,41-14.5.25,17,30.25-13.25-3.5,2.5,8Z" transform="translate(559 -841)"/><path class="cls-1" d="M-412.69,1126.53l5.13-13h-13.75l19.25-42.75-19.25,4,21.5-42-18.5,11,21.25-41.5-19.25,7,20.75-47.75-14.5,6.25c2.5,3.5,21.75-53,21.75-53,2,3.5,28,47.75,28,47.75l-10.25-3,23.25,38.75-20.75.25,35.25,38-26.75-5.5,28,38.75-17-2.25,21.75,41-14.5.25,17,30.25-13.25-3.5,2.5,8Z" transform="translate(559 -841)"/><path class="cls-1" d="M-550.38,1141.88l5.13-13H-559l19.25-42.75-19.25,4,21.5-42-18.5,11,21.25-41.5-19.25,7,20.75-47.75-14.5,6.25c2.5,3.5,21.75-53,21.75-53,2,3.5,28,47.75,28,47.75l-10.25-3,23.25,38.75-20.75.25,35.25,38-26.75-5.5,28,38.75-17-2.25,21.75,41-14.5.25,17,30.25-13.25-3.5,2.5,8Z" transform="translate(559 -841)"/><path class="cls-1" d="M498.06,1069.1l5.13-13H489.44l19.25-42.75-19.25,4,21.5-42-18.5,11,21.25-41.5-19.25,7,20.75-47.75-14.5,6.25c2.5,3.5,21.75-53,21.75-53,2,3.5,28,47.75,28,47.75l-10.25-3,23.25,38.75-20.75.25,35.25,38-26.75-5.5,28,38.75-17-2.25,21.75,41-14.5.25,17,30.25-13.25-3.5,2.5,8Z" transform="translate(559 -841)"/><path class="cls-1" d="M620.16,1069.1l5.13-13H611.54l19.25-42.75-19.25,4,21.5-42-18.5,11,21.25-41.5-19.25,7,20.75-47.75-14.5,6.25c2.5,3.5,21.75-53,21.75-53,2,3.5,28,47.75,28,47.75l-10.25-3,23.25,38.75-20.75.25,35.25,38-26.75-5.5,28,38.75-17-2.25,21.75,41-14.5.25,17,30.25-13.25-3.5,2.5,8Z" transform="translate(559 -841)"/><path class="cls-1" d="M708.17,1073.13l5.13-13H699.55l19.25-42.75-19.25,4,21.5-42-18.5,11,21.25-41.5-19.25,7,20.75-47.75-14.5,6.25c2.5,3.5,21.75-53,21.75-53,2,3.5,28,47.75,28,47.75l-10.25-3,23.25,38.75-20.75.25,35.25,38-26.75-5.5,28,38.75-17-2.25,21.75,41-14.5.25,17,30.25-13.25-3.5,2.5,8Z" transform="translate(559 -841)"/><path class="cls-1" d="M783.7,1147.82l5.12-13H775.07l19.25-42.75-19.25,4,21.5-42-18.5,11,21.25-41.5-19.25,7,20.75-47.75-14.5,6.25c2.5,3.5,21.75-53,21.75-53,2,3.5,28,47.75,28,47.75l-10.25-3,23.25,38.75-20.75.25,35.25,38-26.75-5.5,28,38.75-17-2.25,21.75,41-14.5.25,17,30.25-13.25-3.5,2.5,8Z" transform="translate(559 -841)"/></g></g></svg>