<svg xmlns="http://www.w3.org/2000/svg" viewBox="0 0 249.11 260.71"><defs><style>.cls-1{fill:#e0e9f5;}.cls-2{fill:#009f11;}.cls-3,.cls-4{fill:none;stroke-miterlimit:10;}.cls-3{stroke:#00b600;stroke-width:2px;}.cls-4{stroke:#00ce00;stroke-width:3px;}.cls-5{fill:#e17521;}.cls-6{fill:#8a6c82;}</style></defs><title>Asset 1</title><g id="Layer_2" data-name="Layer 2"><g id="Layer_1-2" data-name="Layer 1"><path class="cls-1" d="M143.55,182.33c6.66,10,18-7.66,18-7.66l13-16.67,4.33-5.33c-1.67,7.33,4.33,18,4.33,18l6.67,15.66c6.67,1.34-2,32-2,32,6.33,1.34,13-6.66,13-6.66,6,.66,16.33-8,16.33-8,10.67-1.34,10-61.67,10-61.67V127.33L230.88,116c5-1.33-2-7.67-2-7.67-.33-10.33,19.33-22,19.33-22,5.67-2.66-17.33-4.66-17.33-4.66-7,.33-27.33-17-27.33-17,0-6.67-22-20.34-22-20.34-11.34-.33-24.34,23-24.34,23A54.64,54.64,0,0,0,156.88,39c-.33-14.67-21.67-30.67-21.67-30.67-10-.66-12,10-12,10-3,7.67-15.33.34-15.33.34C104.21,13.33,93.55,23,93.55,23c-2.34,1.67,3.66,12.67,3.66,12.67C85.55,18.67,29.55,24,29.55,24,22.88,20.67,2.88,61,2.88,61c-9.33,5.67,7,47.33,7,47.33,0-7.33,11-27,11-27-.33-10.66,31.67-7,31.67-7-6,7-4.67,14-4.67,14,7,.67-8.67,21-8.67,21-6,.34-4,25.16-4,25.16-2,5.84,10.34,22.51,10.34,22.51,3.66-3.33,15.33,8.33,15.33,8.33,1.67,4,12.33-2.66,12.33-2.66-9.33-2-9.66-22-9.66-22-1.67-8.34,11.66-12,11.66-12,5,0,9-16.34,9-16.34l14.67,2.34c-.33-5.34,12,10.26,12,10.26-1.67,10.74,3.67,32.07,3.67,32.07-3.67,8,5,21,5,21,0,3.33,7,1.67,7,1.67Z"/><path class="cls-2" d="M126.41,180l16.66,2c4,1.67-4.66,15.34-4.66,15.34L135.27,219l-4.53,41.67L122.41,258c5-9.66,5-39,5-39Z"/><line class="cls-3" x1="138.11" y1="106" x2="157.78" y2="19"/><line class="cls-3" x1="147.95" y1="107" x2="161.45" y2="41.67"/><line class="cls-3" x1="144.13" y1="101.67" x2="154.7" y2="44.33"/><line class="cls-3" x1="162.45" y1="109.67" x2="191.26" y2="51.02"/><line class="cls-3" x1="159.78" y1="100.33" x2="181.78" y2="39.67"/><line class="cls-3" x1="152.57" y1="106.97" x2="172.26" y2="52.66"/><line class="cls-4" x1="153.11" y1="96.67" x2="181.45" y2="4"/><ellipse class="cls-5" cx="157.31" cy="21.06" rx="7.17" ry="2.33" transform="translate(31.18 117.41) rotate(-45)"/><ellipse class="cls-5" cx="161.35" cy="42.14" rx="7.17" ry="2.33" transform="translate(17.46 126.43) rotate(-45)"/><ellipse class="cls-5" cx="181.54" cy="40.33" rx="7.17" ry="2.33" transform="translate(24.66 140.18) rotate(-45)"/><ellipse class="cls-5" cx="171.56" cy="54.6" rx="7.17" ry="2.33" transform="translate(11.64 137.3) rotate(-45)"/><ellipse class="cls-5" cx="154.7" cy="44.33" rx="7.17" ry="2.33" transform="translate(13.96 122.37) rotate(-45)"/><circle class="cls-6" cx="181.92" cy="5.06" r="5.06"/></g></g></svg>