<svg xmlns="http://www.w3.org/2000/svg" viewBox="0 0 182.78 251.46"><defs><style>.cls-1{fill:#209c55;opacity:0.73;}</style></defs><title>Asset 26</title><g id="Layer_2" data-name="Layer 2"><g id="Layer_1-2" data-name="Layer 1"><path class="cls-1" d="M-550.38,1075.47l5.13-13H-559l19.25-42.75-19.25,4,21.5-42-18.5,11,21.25-41.5-19.25,7,20.75-47.75-14.5,6.25c2.5,3.5,21.75-53,21.75-53,2,3.5,28,47.75,28,47.75l-10.25-3L-485,947.21l-20.75.25,35.25,38-26.75-5.5,28,38.75-17-2.25,21.75,41-14.5.25,17,30.25-13.25-3.5,2.5,8Z" transform="translate(559 -841)"/><path class="cls-1" d="M-464.6,1052.76l5.13-13h-13.75L-454,997l-19.25,4,21.5-42-18.5,11L-449,928.5l-19.25,7,20.75-47.75L-462,894c2.5,3.5,21.75-53,21.75-53,2,3.5,28,47.75,28,47.75l-10.25-3,23.25,38.75-20.75.25,35.25,38-26.75-5.5,28,38.75-17-2.25,21.75,41-14.5.25,17,30.25-13.25-3.5,2.5,8Z" transform="translate(559 -841)"/></g></g></svg>