<svg xmlns="http://www.w3.org/2000/svg" xmlns:xlink="http://www.w3.org/1999/xlink" viewBox="0 0 1922.4 1080"><defs><style>.cls-1{fill:url(#linear-gradient);}.cls-2{fill:url(#linear-gradient-2);}.cls-3{fill:#6aaaaf;}.cls-4{opacity:0.94;fill:url(#linear-gradient-3);}.cls-5{fill:url(#linear-gradient-4);}.cls-6{fill:url(#linear-gradient-5);}.cls-7{fill:url(#linear-gradient-6);}.cls-8{fill:#1e9b53;}</style><linearGradient id="linear-gradient" x1="960" y1="1080" x2="960" y2="11.78" gradientUnits="userSpaceOnUse"><stop offset="0.54" stop-color="#fff"/><stop offset="0.78" stop-color="#6fcfeb"/><stop offset="1" stop-color="#9ab6d3"/></linearGradient><linearGradient id="linear-gradient-2" x1="960" y1="980" x2="960" y2="287.33" gradientUnits="userSpaceOnUse"><stop offset="0.2" stop-color="#fff"/><stop offset="0.72" stop-color="#7dacb2"/></linearGradient><linearGradient id="linear-gradient-3" x1="960" y1="894.73" x2="960" y2="518.18" gradientUnits="userSpaceOnUse"><stop offset="0" stop-color="#fff"/><stop offset="0.37" stop-color="#7dacb2"/></linearGradient><linearGradient id="linear-gradient-4" x1="808" y1="962.43" x2="808" y2="691.1" gradientUnits="userSpaceOnUse"><stop offset="0" stop-color="#daf6e4"/><stop offset="0" stop-color="#69da8f"/><stop offset="0.24" stop-color="#24c95b"/><stop offset="0.81" stop-color="#1e9b53"/></linearGradient><linearGradient id="linear-gradient-5" x1="960" y1="1080" x2="960" y2="743" gradientUnits="userSpaceOnUse"><stop offset="0" stop-color="#daf6e4"/><stop offset="0.3" stop-color="#24c95b"/><stop offset="0.86" stop-color="#1e9b53"/></linearGradient><linearGradient id="linear-gradient-6" x1="1560.53" y1="1071.94" x2="1560.53" y2="25.8" gradientUnits="userSpaceOnUse"><stop offset="0.24" stop-color="#694623"/><stop offset="1" stop-color="#7f6244"/></linearGradient></defs><title>Asset 5</title><g id="Layer_2" data-name="Layer 2"><g id="Layer_1-2" data-name="Layer 1"><rect class="cls-1" width="1920" height="1080"/><path class="cls-2" d="M0,471.33l20.67-22.66c3.33-11.34,288-8.67,288-8.67,14-11.33,46,15.53,46,15.53l42-1.26,8,9.06,46.66-2,24.67,18h34c4-20.66,62.67-5.33,62.67-5.33l18,5.33H646l19.33-21.06h47.34l9.33,58.4H828.67l8.66-8.15,19.34-3.19,14.66-18.66,12-113.34,23.34-24,118.66-4L1034,336h85.33l24-10.67h79.34l134.66-4.66H1450l51.33,66.66,60-.66,123.34.66c2.66-33.33,59.33-82,59.33-82h82l30.67-18h38.66L1920,300.67V980H0Z"/><polygon class="cls-3" points="1016.96 351.51 1033.62 470.03 1033.62 575.58 1033.62 605.21 1048.44 514.92 1048.44 457.06 1032.7 344.1 1016.96 351.51"/><polygon class="cls-3" points="484.78 483.07 501.44 601.59 501.44 707.15 501.44 736.78 516.26 646.48 516.26 588.63 500.52 475.67 484.78 483.07"/><polygon class="cls-3" points="1113.04 339.56 1129.71 458.08 1129.71 563.63 1129.71 593.26 1144.52 502.97 1144.52 445.12 1128.78 332.15 1113.04 339.56"/><polygon class="cls-3" points="1689.41 371.04 1706.07 489.56 1706.07 595.11 1706.07 624.74 1720.89 534.44 1720.89 476.59 1705.15 363.63 1689.41 371.04"/><polygon class="cls-3" points="587.56 483.07 604.22 601.59 604.22 707.15 604.22 736.78 619.04 646.48 619.04 588.63 603.3 475.67 587.56 483.07"/><polygon class="cls-3" points="1290.33 328.44 1307 446.96 1307 552.52 1307 582.15 1321.82 491.85 1321.82 434 1306.07 321.04 1290.33 328.44"/><polygon class="cls-3" points="1198.67 328.44 1217.18 476.59 1239.41 659.93 1198.67 637.7 1198.67 494.19 1198.67 328.44"/><polygon class="cls-3" points="372.74 451.59 391.26 599.74 413.48 783.07 372.74 760.85 372.74 617.33 372.74 451.59"/><polygon class="cls-3" points="1786.3 308.07 1804.82 456.22 1827.04 639.56 1786.3 617.33 1786.3 473.81 1786.3 308.07"/><polygon class="cls-3" points="932.58 348.87 921.47 447.02 932.58 548.87 910.36 499.31 897.39 448.87 906.65 348.87 932.58 348.87"/><polygon class="cls-3" points="448.67 462.71 437.56 560.86 448.67 662.71 426.44 613.15 413.48 562.71 422.74 462.71 448.67 462.71"/><polygon class="cls-3" points="87.96 450.67 104.63 569.18 104.63 674.74 104.63 704.37 119.44 614.07 119.44 556.22 103.7 443.26 87.96 450.67"/><polygon class="cls-3" points="62.96 440.48 81.48 588.63 103.7 771.96 62.96 749.74 62.96 606.22 62.96 440.48"/><polygon class="cls-3" points="1431.07 321.5 1449.59 469.65 1471.82 652.98 1431.07 630.76 1431.07 487.24 1431.07 321.5"/><polygon class="cls-3" points="165.91 440 154.8 538.15 165.91 640 143.69 590.44 130.73 540 139.99 440 165.91 440"/><polygon class="cls-3" points="550.11 473.81 539 571.96 550.11 673.82 527.89 624.26 514.93 573.82 524.18 473.81 550.11 473.81"/><polygon class="cls-3" points="35.7 443.26 35.7 537.7 26.44 617.33 17.18 548.82 17.18 485.85 17.18 454.37 35.7 443.26"/><polygon class="cls-3" points="1085.7 328.44 1085.7 422.89 1076.44 502.52 1067.18 434 1067.18 371.04 1067.18 339.56 1085.7 328.44"/><polygon class="cls-3" points="978.52 344.1 978.52 438.55 969.26 518.18 960 449.66 960 386.69 960 355.21 978.52 344.1"/><polygon class="cls-3" points="1748.49 301.59 1748.49 396.04 1739.24 475.67 1729.98 407.15 1729.98 344.19 1729.98 312.7 1748.49 301.59"/><polygon class="cls-3" points="670.07 461.83 670.07 556.28 660.82 635.9 651.56 567.39 651.56 504.42 651.56 472.94 670.07 461.83"/><polygon class="cls-3" points="258.85 441.39 258.85 638.61 244.04 441.39 258.85 441.39"/><polygon class="cls-3" points="857.93 506.6 857.93 703.82 843.11 506.6 857.93 506.6"/><polygon class="cls-3" points="1611.63 388.63 1611.63 585.85 1596.82 388.63 1611.63 388.63"/><polygon class="cls-3" points="183.19 438.87 183.19 544.2 176.52 572.87 193.19 658.87 195.86 548.87 195.86 438.87 183.19 438.87"/><polygon class="cls-3" points="1357.93 321.14 1357.93 426.47 1351.26 455.14 1367.93 541.14 1370.59 431.14 1370.59 321.14 1357.93 321.14"/><polygon class="cls-3" points="272.74 757.15 232 581.22 239.41 442.33 215.33 442.33 215.33 588.63 215.33 671.96 230.15 770.11 272.74 757.15"/><polygon class="cls-3" points="1306.07 643.26 1265.33 467.33 1272.74 328.44 1248.67 328.44 1248.67 474.74 1248.67 558.07 1263.48 656.22 1306.07 643.26"/><polygon class="cls-3" points="1920 613.63 1879.26 437.71 1886.67 298.82 1862.59 298.82 1862.59 445.12 1862.59 528.45 1877.41 626.6 1920 613.63"/><polygon class="cls-3" points="746.82 775.67 706.07 599.74 713.48 460.85 689.41 460.85 689.41 607.15 689.41 690.48 704.22 788.63 746.82 775.67"/><polygon class="cls-3" points="1689.41 699.79 1648.67 523.87 1656.07 384.98 1632 384.98 1632 531.28 1632 614.61 1646.82 712.76 1689.41 699.79"/><polygon class="cls-3" points="291.26 441.41 313.48 552.52 341.26 622.89 361.63 604.37 343.11 532.15 319.04 491.85 309.78 471.04 307.93 441.41 291.26 441.41"/><polygon class="cls-3" points="1806.67 308.07 1828.89 419.19 1856.67 489.56 1877.04 471.04 1858.52 398.81 1834.45 358.52 1825.19 337.7 1823.34 308.07 1806.67 308.07"/><polygon class="cls-3" points="1499.13 384.93 1521.35 496.04 1549.13 566.41 1569.5 547.89 1550.98 475.67 1526.91 435.37 1517.65 414.56 1515.8 384.93 1499.13 384.93"/><polygon class="cls-4" points="0 547.8 96.37 557.07 133.41 557.07 272.3 552.43 342.67 557.07 372.3 547.8 440.81 557.07 487.11 547.8 513.04 532.99 544.52 545.03 629.7 532.99 651.93 518.18 813.04 518.18 846.37 518.18 942.67 527.43 1005.63 573.73 1037.11 545.95 1081.56 560.77 1153.78 586.69 1253.78 601.51 1376 592.25 1514.89 559.84 1565 590.07 1650.07 590.07 1737.11 518.18 1787.11 518.18 1835.26 518.18 1877.85 601.51 1920 601.51 1920 894.73 0 894.73 0 547.8"/><path class="cls-5" d="M291.7,767.1l31-5.34,8.66-7.33v6.33l48-11.66-4.66,6h38c1.33-8.67-10-14.67-10-14.67-8-.67,10.11,2,10.11,2l7.89,6.67,9.33-8.78v8.78l20-8.78-4.67,9.44L486,744.43v9.28l38.67-6.61,10-2-10,8.61L548,748.43l8.67.67,4.66-14,9.34,12,4-12v11.33l17.33-.67-10,5.34,44.67,5.33L654,759.1c33.33-16,88-8,88-8l69.33-18.67v-8l11.34,6L809.33,707.1l21.34,18.66,6-6v10.67l58.66-6.67,14-16.66v12.66C918,710.43,1068,707.1,1068,707.1l59.33-6,7.34-10,8.66,8.66,133.34,6c2.66-8.66,260.66,52,260.66,52l78.67,20c-10.67-23.33-318,37.34-318,37.34l6.67-14-24,14-55.34,17.33,7.34-17.33-22,17.33-50,14.67,6-18.67L1148,847.1l-50.67,14-8.66-10.67-5.34,13.33-12-9.33,2.87,12.67c-8.87-10.67-8.87-28.67-8.87-28.67,4-6.67-2,28.67-2,28.67l-18,10c-14-6.67-223.33,39.33-223.33,39.33L785.33,927.1l-16.66-13.34L764,927.1l-19.33,8v-8L728,938.43l-19.33,3.33L706,935.1l-9.33,11.33-5.34-6.67.67-13.33-24.67,23.33-70,12.67H556.67l-14.67-20-4,16-9.33-6.67-8,7.34-75.34-8V938.43l-12,14L320,941.76l-28.3-6.66L250,932.43l-121.33,5.33L116,927.1v10l-10.67-7.34-6-8.66L92,928.43l-5.33,13.33-58,6-17.34-2L0,946.43V789.1c12-6,138,7.33,138,7.33l40-8.67,20.67-10.66-6,10.66L222,777.1l17.33.66Z"/><path class="cls-6" d="M0,1080V946.43l86.67-4.67L92,928.43l7.33-7.33,6,8.66L116,937.1v-10l12.67,10.66L250,932.43l41.7,2.67,27.65,6.51L354,945l79.33,7.47,12-14V951.1l75.34,8,8-7.34,9.33,6.67,4-16,14.67,20h40.66l70-12.67,23.95-22.65.72-.68-.67,13.33,5.34,6.67L706,935.1l2.67,6.66L728,938.43l16.67-11.33v8l19.33-8,4.67-13.34,16.66,13.34L822,916.43l40-8.57,56.35-11.59,63.87-12.11,42.49-6.55,14.5-1.17h3.49l2.66.66,18-10,2.85-19.8.52,2.73,1.18,4.62,2.46,6.35,3.86,6.1-2.87-12.67,12,9.33,5.34-13.33,8.66,10.67,50.67-14,18.67-18.67-6,18.67,50-14.67,22-17.33-7.34,17.33,55.34-17.33L1304,801.49l.68-.39-6.67,14,89.1-16.46,42.2-7.16L1498,781l58.8-6.85,35.5-1.74,6.53,1,17.14,4.36C1636,756,1840,754,1840,754l26-11-11,13,24-8v8l41-6v330"/><path class="cls-7" d="M1198.67,1071.94c0-12,179.37-78.79,179.37-78.79l60.42-60.73L1460.26,678V634.22l-44.85-53.07,14.95-32.28c1.87-80.43-55.43-125.84-55.43-125.84l-80.35-84.81c-11.83-3.28,16.2-39.94,16.2-39.94l6.85-66.75-31.14-84.81,10.58-88.09-10-32.83h31.76c3.74,17,36.13,11.49,36.13,11.49l1.87,72.22-10,31.19,33,89.73,1.87,67.85,54.81,60.18c-1.25,50.89,137-64,137-64l23.05-56.91V86l53.56,2.74,29.28,28.45,35.34-1.64v268.1c-14.17-3.83-40.33,97.39-40.33,97.39l-3.11,111.07c-10.59,37.21,43.44,90.83,43.44,90.83V942.81c0,31.74,98.57,88.09,98.57,88.09l59.79,10.4,49.2,24.07-207.56-7.66-64.62-1.64-120.2-6-129.55,9.3Z"/><path class="cls-8" d="M1067.19,2.48c0,18.68,64,78.56,64,78.56,15.15,51,101,65,101,65,8.42,24.2,48-21.66,48-21.66,1.68-35.67,78.29,8.92,78.29,8.92,31.15,58.6,120.39,6.37,120.39,6.37l34.52-2.55,42.09-21.66,29.47-20.38c37.88,26.75,101,100.64,101,100.64,2.53,20.39,71.56,0,71.56,0-.84,52.24,63.14,75.17,63.14,75.17l28.41-16.56c38.1-29.3,48.2-149.06,48.2-149.06L1891.38,2.48H1067.19Z"/></g></g></svg>