<svg xmlns="http://www.w3.org/2000/svg" viewBox="0 0 668.35 672.65"><defs><style>.cls-1{fill:#24c95b;}.cls-2{fill:#99e6d8;}.cls-3{fill:#ff9fe5;}.cls-4{fill:#3d7cc9;}.cls-5{fill:#eb931d;}.cls-6{fill:#d08a57;stroke-width:10px;}.cls-6,.cls-7,.cls-9{stroke:#694623;}.cls-6,.cls-7,.cls-8,.cls-9{stroke-miterlimit:10;}.cls-7,.cls-8,.cls-9{fill:none;}.cls-7,.cls-8{stroke-width:24px;}.cls-8{stroke:#7f6244;}.cls-9{stroke-width:11px;}</style></defs><title>Asset 27</title><g id="Layer_2" data-name="Layer 2"><g id="Layer_1-2" data-name="Layer 1"><ellipse class="cls-1" cx="147.82" cy="335.17" rx="56.52" ry="91.24"/><ellipse class="cls-2" cx="331.88" cy="334.51" rx="71.01" ry="97.83"/><ellipse class="cls-3" cx="501.32" cy="322.32" rx="72.46" ry="108.63"/><ellipse class="cls-4" cx="421.06" cy="272.92" rx="70.35" ry="104.35"/><ellipse class="cls-5" cx="228.98" cy="285.73" rx="69.57" ry="100.72"/><path class="cls-6" d="M18.47,315.72C-.15,349.14,4.11,399.78,10.16,433.86a347,347,0,0,0,8.31,36.24C34.26,580.63,195.66,650.81,195.66,650.81,434.26,705.19,543,610.45,543,610.45c78.94-47.36,114-180.7,114-180.7,21.06-36.84-17.54-138.59-17.54-138.59-29.83,80.7-407,78.94-407,78.94C148.29,368.35,18.47,315.72,18.47,315.72Z"/><path class="cls-7" d="M14.65,447.73c3-2,90.41,73.4,335.53,57.81C433.6,500.23,593.1,455.73,653.69,441"/><path class="cls-8" d="M23.1,313.73C47.05,342.27,175.42,352.07,329,358.55c93.57,3.95,286.88-25.1,308.07-72.82"/><path class="cls-9" d="M34.38,322.32C49.27,213.69,308.69-314,624.63,291.16"/></g></g></svg>