<svg xmlns="http://www.w3.org/2000/svg" viewBox="0 0 111.11 122.84"><defs><style>.cls-1{fill:#fff;}.cls-2{fill:#160000;}</style></defs><title>Asset 3</title><g id="Layer_2" data-name="Layer 2"><g id="Layer_1-2" data-name="Layer 1"><rect class="cls-1" y="0.62" width="111.11" height="122.22"/><rect class="cls-2" width="111.11" height="8.63"/><path d="M52.25,93.54a24.8,24.8,0,0,0,.44-3.05c.16-1.47.3-3.23.42-5.27s.22-4.29.29-6.71.1-4.87.1-7.33c0-1.42,0-2.66-.1-3.72A7.57,7.57,0,0,0,53,65.14l-1.79.76c-.78.33-1.45.63-2,.91-.14,0-.29-.11-.45-.34a1.24,1.24,0,0,1-.23-.7,1.06,1.06,0,0,1,.05-.31l2.6-.81c1.07-.33,2.18-.69,3.33-1.09s2.24-.81,3.3-1.22a14,14,0,0,0,2.52-1.25.13.13,0,0,0,.08.13s.08.09.08.23A5.84,5.84,0,0,0,60,63.22c-.18.9-.32,2-.44,3.22s-.23,2.62-.32,4.11S59,73.52,59,75s-.1,2.87-.13,4.18-.06,2.45-.06,3.38,0,2.12,0,3.12.05,1.95.11,2.81.12,1.66.23,2.37a8.28,8.28,0,0,0,.41,1.74,1.26,1.26,0,0,0,.52.65,5.86,5.86,0,0,0,1,.52,5.32,5.32,0,0,0,1.17.36,5.17,5.17,0,0,0,1.09.13.34.34,0,0,1,.31.19.59.59,0,0,1,.1.28c0,.31-.12.47-.36.47-.8,0-1.62,0-2.47,0l-2.5,0-2.23-.06-1.69,0c-1,0-2,0-2.94.08a21,21,0,0,0-2.11.18c-.31,0-.46-.14-.46-.42a.46.46,0,0,1,.15-.41,1.27,1.27,0,0,1,.42-.16,13.64,13.64,0,0,0,1.74-.34C51.9,93.93,52.22,93.74,52.25,93.54Z"/><path d="M28.23,15.8c-.39,0-.94,0-1.67,0s-1.51-.06-2.33-.1-1.61-.11-2.39-.18-1.41-.16-1.89-.26a.63.63,0,0,1-.27-.37,1.51,1.51,0,0,1-.13-.6.57.57,0,0,1,.29-.5,25.82,25.82,0,0,0,3.13.63c1.13.15,2.21.28,3.24.38s2,.15,2.79.18l1.82,0c.94,0,1.9,0,2.88-.07s1.9-.11,2.74-.18,1.54-.14,2.1-.22a3,3,0,0,0,1-.21s.12.05.22.14a.49.49,0,0,1,.14.33.64.64,0,0,1-.36.59,3,3,0,0,1-1,.29,15.31,15.31,0,0,1-1.58.12l-2.09.11c-.12,0-.18.16-.18.4A22.26,22.26,0,0,0,34.94,19q.27,1.92.69,4.32t.93,5.08q.52,2.67,1,5c.34,1.57.67,2.95,1,4.14A14.36,14.36,0,0,0,39.35,40a1.15,1.15,0,0,0,.31.09l.45,0a6.44,6.44,0,0,0,.81,0l.52,0c.1,0,.17.09.22.29a2.72,2.72,0,0,1,.07.39.22.22,0,0,1-.25.25l-.51,0c-.21,0-.51,0-.9-.06l-1.49,0c-.61,0-1.39,0-2.32,0-.32,0-.66,0-1,0l-1.06.07-.9.07-.54,0c-.07,0-.13,0-.18-.14a.72.72,0,0,1-.07-.33.67.67,0,0,1,.05-.3.2.2,0,0,1,.2-.13c.21,0,.5,0,.86-.05s.54-.11.54-.27a12.56,12.56,0,0,0-.18-1.3c-.12-.72-.27-1.58-.45-2.59s-.37-2.08-.57-3.22-.41-2.21-.6-3.19c-.43-.07-1-.13-1.64-.18s-1.35-.07-2.07-.07a22.83,22.83,0,0,0-2.39.11,5.91,5.91,0,0,0-1.78.39c-.12.53-.25,1.09-.4,1.68s-.28,1.18-.41,1.78-.25,1.19-.34,1.78a9.8,9.8,0,0,0-.15,1.64,3,3,0,0,0,.63,2.12,2.1,2.1,0,0,0,1.57.65,8.43,8.43,0,0,0,1.17-.05,1.62,1.62,0,0,1,.41-.06c.19,0,.29,0,.29.15s0,.12-.16.23a3.89,3.89,0,0,1-.41.34l-.85.63a2.27,2.27,0,0,1-1.35.38l-.56,0-1.1-.09-1.37-.09-1.36,0c-.6,0-1.09,0-1.46,0s-.67,0-.88.08a2.1,2.1,0,0,0-.45.07l-.2,0c-.05,0-.09,0-.13-.12a.86.86,0,0,1-.05-.27c0-.15.06-.23.18-.25a9.85,9.85,0,0,0,1-.54,3.74,3.74,0,0,0,1.28-1.46c.37-.69.8-1.62,1.28-2.79a31.63,31.63,0,0,0,1.11-3.24q.62-2.05,1.23-4.5t1.15-5.13q.54-2.68.9-5.17ZM31.9,27c-.12-.6-.26-1.35-.41-2.24S31.17,23,31,22.05l-.48-2.61c-.16-.82-.29-1.44-.38-1.88a5,5,0,0,0-.38-1.22c-.11-.17-.22-.25-.34-.25s-.5.2-.76.59a12.3,12.3,0,0,0-.85,1.59c-.3.66-.59,1.41-.88,2.26s-.57,1.73-.84,2.63-.53,1.8-.76,2.68-.41,1.7-.56,2.42c.39-.1.87-.2,1.46-.31l1.87-.34c.66-.12,1.32-.24,2-.34S31.35,27.07,31.9,27Z"/><path d="M56,38.88a13.74,13.74,0,0,1-2.84,1.29,10.27,10.27,0,0,1-3.28.58c-.34,0-.71,0-1.13-.07s-.77-.1-1-.15c0,.46,0,.93-.05,1.41s0,.94,0,1.38,0,.86,0,1.24,0,.71,0,1A6.78,6.78,0,0,0,47.9,48a1,1,0,0,0,1,.65,5.9,5.9,0,0,0,.88-.09,3.28,3.28,0,0,0,1-.31c.05-.05.1,0,.16.15a1,1,0,0,1,.09.39s-.17.09-.5.2l-1.28.4-1.68.5-1.72.5c-.56.16-1,.29-1.43.38a4.44,4.44,0,0,1-.73.15,2.35,2.35,0,0,1-.4,0c-.12,0-.18-.13-.18-.32a.23.23,0,0,1,.13-.24.38.38,0,0,0,.19-.16,1.4,1.4,0,0,0,.22-.81c0-.4.06-.79.11-1.17.07-.94.15-2.05.23-3.33s.16-2.63.24-4,.13-2.81.19-4.21.09-2.69.09-3.84A29.17,29.17,0,0,0,44.27,29a6.55,6.55,0,0,0-.56-2.05,1.63,1.63,0,0,0-.81-.83,2.76,2.76,0,0,0-1-.16h-.3a2.48,2.48,0,0,1-.38,0c-.1,0-.14-.08-.14-.25a1.17,1.17,0,0,1,0-.23.36.36,0,0,1,.17-.13L42,25l1.12-.56,1.35-.65,1.35-.61c.42-.18.78-.33,1.1-.45a2.18,2.18,0,0,1,.64-.18.74.74,0,0,1,.74.47,3.91,3.91,0,0,1,.24,1.26c0,.22,0,.56,0,1s0,1-.06,1.6c.32-.34.74-.75,1.28-1.24a14.65,14.65,0,0,1,1.84-1.43,14,14,0,0,1,2.16-1.17,5.62,5.62,0,0,1,2.21-.48,6.42,6.42,0,0,1,2.76.56,5.74,5.74,0,0,1,2,1.47,6.5,6.5,0,0,1,1.21,2.09,7,7,0,0,1,.41,2.39,9.32,9.32,0,0,1-.52,3.19,11.58,11.58,0,0,1-1.28,2.59,11.32,11.32,0,0,1-3.31,3.26Zm-8.1-2.78a1.65,1.65,0,0,0,.58.81,4.86,4.86,0,0,0,1.2.76,9.53,9.53,0,0,0,1.69.58,8.92,8.92,0,0,0,2,.23,4.68,4.68,0,0,0,1.85-.38,3.89,3.89,0,0,0,1.53-1.19,6.06,6.06,0,0,0,1-2.1,11.4,11.4,0,0,0,.38-3.13,8.16,8.16,0,0,0-.36-2.45,6.16,6.16,0,0,0-1-2,5,5,0,0,0-1.62-1.35,4.42,4.42,0,0,0-2-.48,3.8,3.8,0,0,0-1.28.25,6.11,6.11,0,0,0-1.35.68,7.65,7.65,0,0,0-1.2,1,3.42,3.42,0,0,0-.81,1.22,5.65,5.65,0,0,0-.31,1.35c-.08.62-.14,1.29-.18,2s-.06,1.47-.07,2.21S47.92,35.53,47.92,36.1Z"/><path d="M80.5,25.23l-.94.81c-.36.33-.73.64-1.13.94a8.45,8.45,0,0,1-1.21.77,2.46,2.46,0,0,1-1.18.33,1.68,1.68,0,0,1-.9-.24,5.63,5.63,0,0,1-.74-.5l-.67-.51a1.16,1.16,0,0,0-.68-.23,2,2,0,0,0-1.64.79,6.33,6.33,0,0,0-1.08,2,13.83,13.83,0,0,0-.61,2.66,20.76,20.76,0,0,0-.2,2.77,14.83,14.83,0,0,0,.09,1.82,4.27,4.27,0,0,0,.27,1.12,1.06,1.06,0,0,0,.49.56,1.79,1.79,0,0,0,.73.14,4.15,4.15,0,0,0,1-.14c.07,0,.13,0,.16.14a1,1,0,0,1,.06.29s0,.1-.11.16a.36.36,0,0,1-.14.09c-.53.22-1.07.45-1.62.7l-1.37.63c-.34.15-.74.3-1.21.47a3.62,3.62,0,0,1-1.2.25,2.22,2.22,0,0,1-1-.18c-.25-.12-.38-.24-.38-.36a.57.57,0,0,1,.09-.32,1.79,1.79,0,0,0,.17-.54c0-.36.1-.79.16-1.28s.12-1,.18-1.6.11-1.17.14-1.78.06-1.22.06-1.82c0-1.35,0-2.49-.13-3.42a8.55,8.55,0,0,0-.45-2.27,2.2,2.2,0,0,0-2.3-1.62h-.33a1,1,0,0,0-.29,0,.19.19,0,0,1-.21-.22.34.34,0,0,1,.21-.32c.27-.17.68-.42,1.23-.74S65,24,65.58,23.7s1.16-.57,1.71-.81a3.52,3.52,0,0,1,1.22-.36,1.08,1.08,0,0,1,.79.31,1.86,1.86,0,0,1,.49.77A4.6,4.6,0,0,1,70,24.67a9.46,9.46,0,0,1,.08,1.17c0,.29,0,.59,0,.9s0,.65,0,1A27.1,27.1,0,0,1,73,24.06a3.63,3.63,0,0,1,2.44-1.31,1.3,1.3,0,0,1,.85.36c.28.24.57.51.88.81a9.05,9.05,0,0,0,1,.81,1.8,1.8,0,0,0,1,.36,1.61,1.61,0,0,0,.68-.11l.36-.18c.19,0,.29.13.29.4Z"/><path d="M85.47,34.27c0,.5,0,1,0,1.46a3.48,3.48,0,0,0,.26,1.2,1.84,1.84,0,0,0,.64.81,2.07,2.07,0,0,0,1.23.31,5.25,5.25,0,0,0,.9-.09,6.94,6.94,0,0,0,1-.24c.3-.09.57-.19.79-.28a1.76,1.76,0,0,0,.42-.22c.07-.07.12-.07.14,0a.74.74,0,0,1,0,.27.9.9,0,0,1-.09.32.58.58,0,0,1-.18.24c-.24.12-.66.33-1.26.65s-1.31.63-2.12,1a21.59,21.59,0,0,1-2.25.84,6.42,6.42,0,0,1-1.82.35,1.68,1.68,0,0,1-1.3-.51,1.77,1.77,0,0,1-.47-1.26c0-.17,0-.31,0-.43s0-.28.06-.47.06-.68.12-1.31.12-1.35.18-2.14.11-1.59.16-2.4.08-1.49.08-2.07V29a11.49,11.49,0,0,0-.11-1.65,2.83,2.83,0,0,0-.36-1.12,1.36,1.36,0,0,0-.45-.41,1.26,1.26,0,0,0-.67-.17,1.11,1.11,0,0,0-.43.09.92.92,0,0,1-.32.09s-.13-.07-.24-.21-.1-.25,0-.33a9.75,9.75,0,0,1,1-.57l1.73-.87c.67-.33,1.32-.63,2-.88a4.24,4.24,0,0,1,1.33-.38.59.59,0,0,1,.54.24,1,1,0,0,1,.14.52v.14A8.35,8.35,0,0,1,86,24.66c-.07.52-.15,1.17-.23,1.94s-.16,1.66-.23,2.66-.11,2.1-.11,3.28ZM84,15.55a1.56,1.56,0,0,1,.59.39,10.91,10.91,0,0,1,.85.83,9.4,9.4,0,0,1,.75.9,1.4,1.4,0,0,1,.33.58c0,.12-.15.3-.43.54s-.62.48-1,.74-.74.47-1.08.66a2,2,0,0,1-.74.29,1.38,1.38,0,0,1-.52-.34c-.28-.23-.56-.49-.85-.78a9.65,9.65,0,0,1-.77-.84c-.23-.28-.35-.46-.35-.56s.16-.31.47-.56.65-.51,1-.79a10.12,10.12,0,0,1,1.08-.72A5.91,5.91,0,0,1,84,15.55Z"/><path d="M101.81,36.86a.42.42,0,0,1,.22.36c0,.19-.28.44-.83.76s-1.34.73-2.29,1.18a27,27,0,0,1-2.82,1.19l-1.23.43a3.09,3.09,0,0,1-1,.18,4.11,4.11,0,0,1-1.24-.23,6.08,6.08,0,0,1-1.28-.56l-.68-.45c-.17-.11-.25-.22-.25-.34a.5.5,0,0,1,.08-.27,1.49,1.49,0,0,0,.17-.31l.07-.28a2.2,2.2,0,0,0,0-.36c.07-.6.14-1.47.23-2.61s.15-2.4.2-3.78.09-2.81.12-4.29.06-2.85.06-4.12c0-1.56,0-2.82,0-3.78s0-1.73-.09-2.3A5.38,5.38,0,0,0,91,15.71a1.58,1.58,0,0,0-.4-.56,1.24,1.24,0,0,0-.48-.27,4.23,4.23,0,0,0-.43-.07l-.33,0c-.08,0-.12,0-.12-.07,0-.79.33-1.19,1-1.19l1.78,0,1.71,0a7.59,7.59,0,0,0,.92-.06l1-.1c.31,0,.6-.08.86-.13a4.5,4.5,0,0,0,.58-.14.19.19,0,0,1,.23.1.8.8,0,0,1,.11.36.75.75,0,0,1-.07.4.41.41,0,0,1-.23.22l-.38,0a1.86,1.86,0,0,0-.56.15c-.12,0-.23.19-.32.45A5.17,5.17,0,0,0,95.58,16q-.1.81-.21,2.13c-.07.87-.15,2-.22,3.29-.07,1.06-.13,2.13-.16,3.22s-.07,2.16-.11,3.19-.06,2-.07,2.88,0,1.64,0,2.27,0,1.4,0,2.1a6.52,6.52,0,0,0,.2,1.68,2.19,2.19,0,0,0,.93,1.08,2.89,2.89,0,0,0,1.59.5,5.24,5.24,0,0,0,1.33-.18,8.87,8.87,0,0,0,1.26-.43c.38-.17.73-.34,1-.5S101.67,37,101.81,36.86Z"/></g></g></svg>