<svg xmlns="http://www.w3.org/2000/svg" xmlns:xlink="http://www.w3.org/1999/xlink" viewBox="0 0 1829.63 1085.19"><defs><style>.cls-1{fill:url(#linear-gradient);}.cls-2{fill:#3f60ff;}.cls-3{fill:#3d7cc9;}.cls-4{fill:#ed534f;}.cls-5{fill:#ca6aff;}.cls-6{fill:#ff0aaf;}.cls-7{fill:#ffb300;}.cls-8{fill:#eb931d;}</style><linearGradient id="linear-gradient" x1="914.81" y1="1085.19" x2="914.81" gradientUnits="userSpaceOnUse"><stop offset="0.04" stop-color="#ffed74"/><stop offset="0.6" stop-color="#99e6d8"/><stop offset="1" stop-color="#eeda00" stop-opacity="0.6"/></linearGradient></defs><title>Asset 22</title><g id="Layer_2" data-name="Layer 2"><g id="Layer_1-2" data-name="Layer 1"><rect class="cls-1" width="1829.63" height="1085.19"/><ellipse class="cls-2" cx="433.65" cy="875.25" rx="37.17" ry="56.48"/><ellipse class="cls-3" cx="1349.55" cy="637.43" rx="37.17" ry="56.48"/><ellipse class="cls-4" cx="248.94" cy="99.83" rx="37.17" ry="56.48"/><ellipse class="cls-4" cx="1062.82" cy="884.6" rx="37.17" ry="56.48"/><ellipse class="cls-5" cx="275.91" cy="389.18" rx="37.17" ry="56.48"/><ellipse class="cls-5" cx="1652.45" cy="507.75" rx="37.17" ry="56.48"/><ellipse class="cls-5" cx="778.95" cy="119.35" rx="37.17" ry="56.48"/><ellipse class="cls-6" cx="174.61" cy="648.97" rx="37.17" ry="56.48"/><ellipse class="cls-6" cx="1120.22" cy="175.83" rx="37.17" ry="56.48"/><ellipse class="cls-7" cx="1615.28" cy="119.35" rx="37.17" ry="56.48"/><ellipse class="cls-7" cx="1640.84" cy="914.42" rx="37.17" ry="56.48"/><path class="cls-8" d="M566.16,462.56c.18,0,.37.28.55.83a1.73,1.73,0,0,1,0,1.38,10.14,10.14,0,0,1-2,2.76,18.14,18.14,0,0,1-3.72,2.9,25.43,25.43,0,0,1-5.25,2.35,20.28,20.28,0,0,1-6.28,1,9.56,9.56,0,0,1-4.55-1,10.92,10.92,0,0,1-3-2.28,8,8,0,0,1-1.65-2.76,7.76,7.76,0,0,1-.49-2.42,6.73,6.73,0,0,1,1.45-3.93c1-1.33,2.21-2.9,3.73-4.69s3.13-3.94,4.83-6.42a52.73,52.73,0,0,0,4.83-9,63.25,63.25,0,0,0,3.72-12.56,88.35,88.35,0,0,0,1.45-17.18q0-15.58-6.9-23.87a22.1,22.1,0,0,0-17.8-8.28,20.32,20.32,0,0,0-7,1.59,32.93,32.93,0,0,0-7.93,4.41,29.66,29.66,0,0,0-6.56,6.76,15.53,15.53,0,0,0-2.89,8.63q-.15,2.49-.21,5.8c-.05,2.2-.07,4.55-.07,7v15.18q.13,7.46.55,13.25c.28,3.87.69,6.3,1.24,7.32a4.89,4.89,0,0,0,3.8,1.93c1.79.18,3.47.27,5,.27.83,0,1.25.6,1.25,1.8a1.46,1.46,0,0,1-1.66,1.65c-.55,0-1.5,0-2.83-.07s-2.8-.06-4.41-.06-3.23,0-4.83-.07-2.93-.07-3.94-.07q-3.58,0-7.59.07l-7.59.13q-3.58.08-6.28.21c-1.79.09-3,.18-3.51.28-.28,0-.46-.19-.56-.55a2.92,2.92,0,0,1,0-1.25,3.11,3.11,0,0,1,.56-1.24,1.09,1.09,0,0,1,.82-.55,33.32,33.32,0,0,0,5.59-.48,9.44,9.44,0,0,0,3.52-1c.74-.55,1.4-2.35,2-5.38s1.13-6.81,1.59-11.32.83-9.45,1.1-14.83.42-10.65.42-15.8q0-15.6-.14-24.43a114.92,114.92,0,0,0-.76-13.18Q493.17,361,492,360a4.78,4.78,0,0,0-3.11-1c-.37,0-.9,0-1.59.07s-1.4.12-2.14.21-1.4.16-2,.21-1,.07-1.17.07-.3-.19-.34-.56a8,8,0,0,1-.07-1.1,11.57,11.57,0,0,1,.13-1.52c.1-.64.37-1,.83-1h1.8c.73,0,1.88,0,3.45.07s3.65.1,6.28.14,6,.07,10.28.07a311.54,311.54,0,0,0,37.05-1.93,166.39,166.39,0,0,0,27.81-5.52c.83-.28,1.35-.3,1.58-.07a1.62,1.62,0,0,1,.35,1.17A4.84,4.84,0,0,1,570,352a23.77,23.77,0,0,1-2.9,3.17,19,19,0,0,1-3.73,2.69,7.84,7.84,0,0,1-3.79,1.11c-1.57,0-3.5-.05-5.8-.14s-4.78-.19-7.45-.28-5.48-.16-8.42-.21-5.84-.06-8.69-.06a50.09,50.09,0,0,0-11.25,1c-2.9.69-4.58,1.72-5,3.11a26.28,26.28,0,0,0-1.51,8.62q-.28,5.73-.28,16.77,1.38-1.38,5.17-4.42a82.18,82.18,0,0,1,9-6.14,77.38,77.38,0,0,1,11.25-5.52,32.67,32.67,0,0,1,12.15-2.41,30.05,30.05,0,0,1,11.17,2.13,31.78,31.78,0,0,1,9.53,5.87A28.8,28.8,0,0,1,576,386a24.26,24.26,0,0,1,2.48,10.84A41,41,0,0,1,576.65,409a68.35,68.35,0,0,1-4.55,11.11c-1.85,3.54-3.82,7-5.94,10.28s-4.09,6.53-5.93,9.66a68.58,68.58,0,0,0-4.56,9.18,23.61,23.61,0,0,0-1.79,8.76,6.53,6.53,0,0,0,1.72,4.62q1.73,1.86,5.46,1.86a7.57,7.57,0,0,0,3.17-.62,3.84,3.84,0,0,0,1.79-1.31Z"/><path class="cls-8" d="M627,411.78a65.16,65.16,0,0,0-1.93-7.66,20.59,20.59,0,0,0-2.76-5.66,11,11,0,0,0-4-3.45,12.87,12.87,0,0,0-5.79-1.17,14,14,0,0,0-5.59,1.1,18.8,18.8,0,0,0-4.42,2.63,14.69,14.69,0,0,0-2.89,3,6.79,6.79,0,0,0-1.18,2.35,1.12,1.12,0,0,1-1.24,1.1,5.51,5.51,0,0,1-3.59-1.38,4.18,4.18,0,0,1-1.65-3.31,3.93,3.93,0,0,1,.27-1.66c2.12-1.19,4.69-2.48,7.73-3.86s6.19-2.67,9.45-3.87a91.34,91.34,0,0,1,9.73-3,37.33,37.33,0,0,1,8.7-1.17q5.79,0,8.9,1.65a10.63,10.63,0,0,1,4.62,4.69,19.56,19.56,0,0,1,1.86,7.11c.23,2.71.44,5.64.62,8.76q.42,7,1.11,13.6A73.16,73.16,0,0,0,647,433.24a26.75,26.75,0,0,0,3.52,8.14,6.28,6.28,0,0,0,5.31,3.11,11.25,11.25,0,0,0,3.31-.56,25.86,25.86,0,0,0,3.45-1.31,32.59,32.59,0,0,0,3-1.52c.87-.5,1.45-.85,1.72-1a1.41,1.41,0,0,1,1.52,1.24,2.76,2.76,0,0,1-.27,1.24,17.32,17.32,0,0,1-2.07,1.38c-1.2.74-2.67,1.61-4.42,2.63s-3.68,2.09-5.8,3.24S652.07,452,650,453s-4,1.84-5.72,2.49a13,13,0,0,1-4.14,1A4.06,4.06,0,0,1,637,455a12.7,12.7,0,0,1-2.27-3.86,34.58,34.58,0,0,1-1.66-5.59c-.46-2.12-.88-4.32-1.24-6.62q-2.49,2.07-6.35,4.89a75.18,75.18,0,0,1-8.42,5.32,67.89,67.89,0,0,1-9.31,4.21,26.94,26.94,0,0,1-9.18,1.72,16.57,16.57,0,0,1-6.49-1.17,13.77,13.77,0,0,1-4.62-3.11,12.2,12.2,0,0,1-2.76-4.48,15.84,15.84,0,0,1-.9-5.31,10.07,10.07,0,0,1,2.7-7.25,33.5,33.5,0,0,1,8.34-5.86q2.63-1.38,7.32-3.66t9.59-4.62q4.89-2.36,9.11-4.49C623.68,413.73,625.73,412.61,627,411.78Zm4,21.39c-.28-1.56-.55-3.27-.83-5.11s-.55-3.59-.83-5.24-.53-3.08-.75-4.28-.4-2-.49-2.34q-2.21.82-5,1.93c-1.84.73-3.68,1.54-5.52,2.41s-3.58,1.75-5.24,2.62a47.07,47.07,0,0,0-4.14,2.42,20.28,20.28,0,0,0-4.83,4.14,7.74,7.74,0,0,0-1.66,5,11.12,11.12,0,0,0,2.35,7q2.34,3,7.31,3a17,17,0,0,0,5.46-1,41.24,41.24,0,0,0,5.24-2.21,38.14,38.14,0,0,0,4.21-2.49,19.35,19.35,0,0,0,2.48-1.93c.74-.73,1.31-1.36,1.73-1.86A2.86,2.86,0,0,0,631,433.17Z"/><path class="cls-8" d="M714.09,448.35a52.3,52.3,0,0,1-10.9,5,38.92,38.92,0,0,1-12.56,2.21,39.7,39.7,0,0,1-4.34-.28c-1.61-.19-2.92-.37-3.94-.55-.09,1.74-.16,3.54-.2,5.38s-.09,3.61-.14,5.31-.09,3.29-.14,4.76-.07,2.72-.07,3.73q0,7,1.18,9.52a3.84,3.84,0,0,0,3.65,2.49,22.53,22.53,0,0,0,3.38-.35,13.23,13.23,0,0,0,3.8-1.17c.18-.19.39,0,.62.55a4,4,0,0,1,.35,1.52,6.91,6.91,0,0,1-1.94.76q-1.94.62-4.9,1.51l-6.41,1.94q-3.45,1-6.63,1.93c-2.12.6-3.93,1.08-5.45,1.45a18.7,18.7,0,0,1-2.83.55,7.94,7.94,0,0,1-1.52-.14c-.46-.09-.69-.51-.69-1.24a.87.87,0,0,1,.49-.9,1.72,1.72,0,0,0,.76-.62,5.66,5.66,0,0,0,.83-3.1c.08-1.52.22-3,.41-4.49q.4-5.38.9-12.76t.89-15.46q.42-8.07.76-16.15T669.8,425a110.89,110.89,0,0,0-.76-14.7,24.9,24.9,0,0,0-2.14-7.87,6.26,6.26,0,0,0-3.11-3.17,10.8,10.8,0,0,0-3.65-.62c-.28,0-.67,0-1.18.07s-1,.07-1.45.07-.55-.32-.55-1a3.92,3.92,0,0,1,.07-.9c.05-.13.26-.29.62-.48s1.31-.73,2.56-1.38,2.66-1.36,4.27-2.14,3.34-1.61,5.18-2.48,3.56-1.66,5.17-2.35,3-1.26,4.21-1.72a8.58,8.58,0,0,1,2.49-.69,2.82,2.82,0,0,1,2.83,1.79,14.49,14.49,0,0,1,.89,4.83c0,.83,0,2.14-.07,3.93s-.11,3.85-.2,6.15c1.19-1.29,2.83-2.88,4.9-4.77a60,60,0,0,1,7-5.45,52.53,52.53,0,0,1,8.28-4.48,21.51,21.51,0,0,1,8.49-1.86A25,25,0,0,1,724.24,388a22.54,22.54,0,0,1,7.66,5.66,25,25,0,0,1,4.62,8,27.27,27.27,0,0,1,1.59,9.17,36.13,36.13,0,0,1-2,12.22,45.94,45.94,0,0,1-4.9,9.93,40.87,40.87,0,0,1-6.35,7.52,42.8,42.8,0,0,1-6.35,5ZM683,437.72a6.81,6.81,0,0,0,2.21,3.11,19.19,19.19,0,0,0,4.63,2.9,35.07,35.07,0,0,0,6.48,2.2,32.58,32.58,0,0,0,7.8.9,17.84,17.84,0,0,0,7.11-1.45,15,15,0,0,0,5.86-4.55,23,23,0,0,0,3.93-8.07,43.23,43.23,0,0,0,1.45-12,31.25,31.25,0,0,0-1.38-9.38,23.63,23.63,0,0,0-4-7.73,19.09,19.09,0,0,0-6.21-5.18,16.85,16.85,0,0,0-7.87-1.86,14.45,14.45,0,0,0-4.89,1,23.36,23.36,0,0,0-5.18,2.62,27.68,27.68,0,0,0-4.62,3.86,14.2,14.2,0,0,0-3.11,4.69,22.39,22.39,0,0,0-1.17,5.18q-.48,3.51-.69,7.73t-.28,8.48C683.07,433,683,435.51,683,437.72Z"/><path class="cls-8" d="M796.48,448.35a52.78,52.78,0,0,1-10.9,5A39,39,0,0,1,773,455.53a39.72,39.72,0,0,1-4.35-.28c-1.61-.19-2.92-.37-3.93-.55-.09,1.74-.16,3.54-.21,5.38s-.09,3.61-.14,5.31-.09,3.29-.13,4.76-.07,2.72-.07,3.73q0,7,1.17,9.52a3.84,3.84,0,0,0,3.66,2.49,22.78,22.78,0,0,0,3.38-.35,13.16,13.16,0,0,0,3.79-1.17c.19-.19.39,0,.62.55a4,4,0,0,1,.35,1.52,6.91,6.91,0,0,1-1.93.76c-1.29.41-2.93.91-4.9,1.51l-6.42,1.94q-3.45,1-6.62,1.93T751.84,494a18.94,18.94,0,0,1-2.83.55,7.86,7.86,0,0,1-1.52-.14c-.46-.09-.69-.51-.69-1.24a.88.88,0,0,1,.48-.9,1.66,1.66,0,0,0,.76-.62,5.58,5.58,0,0,0,.83-3.1c.09-1.52.23-3,.41-4.49q.42-5.38.9-12.76t.9-15.46q.4-8.07.76-16.15t.34-14.69a109.19,109.19,0,0,0-.76-14.7,24.9,24.9,0,0,0-2.14-7.87,6.25,6.25,0,0,0-3.1-3.17,10.82,10.82,0,0,0-3.66-.62c-.28,0-.67,0-1.17.07s-1,.07-1.45.07-.55-.32-.55-1a3.4,3.4,0,0,1,.07-.9c0-.13.25-.29.62-.48s1.31-.73,2.55-1.38,2.67-1.36,4.28-2.14,3.33-1.61,5.17-2.48,3.57-1.66,5.18-2.35,3-1.26,4.21-1.72a8.46,8.46,0,0,1,2.48-.69,2.82,2.82,0,0,1,2.83,1.79,14.73,14.73,0,0,1,.9,4.83c0,.83,0,2.14-.07,3.93s-.12,3.85-.21,6.15q1.8-1.93,4.9-4.77a60.15,60.15,0,0,1,7-5.45,51.67,51.67,0,0,1,8.28-4.48,21.47,21.47,0,0,1,8.48-1.86A25,25,0,0,1,806.62,388a22.45,22.45,0,0,1,7.66,5.66,25,25,0,0,1,4.62,8,27.27,27.27,0,0,1,1.59,9.17,36.13,36.13,0,0,1-2,12.22,45.94,45.94,0,0,1-4.9,9.93,40.87,40.87,0,0,1-6.35,7.52,42.29,42.29,0,0,1-6.35,5Zm-31.05-10.63a6.66,6.66,0,0,0,2.21,3.11,18.92,18.92,0,0,0,4.62,2.9,35.18,35.18,0,0,0,6.49,2.2,32.44,32.44,0,0,0,7.79.9,17.8,17.8,0,0,0,7.11-1.45,15,15,0,0,0,5.86-4.55,23.21,23.21,0,0,0,3.94-8.07,43.61,43.61,0,0,0,1.45-12,31.25,31.25,0,0,0-1.38-9.38,23.65,23.65,0,0,0-4-7.73,18.89,18.89,0,0,0-6.21-5.18,16.81,16.81,0,0,0-7.86-1.86,14.5,14.5,0,0,0-4.9,1,23.58,23.58,0,0,0-5.18,2.62,28.5,28.5,0,0,0-4.62,3.86,14,14,0,0,0-3.1,4.69,22.29,22.29,0,0,0-1.18,5.18q-.48,3.51-.69,7.73c-.13,2.8-.23,5.63-.27,8.48S765.43,435.51,765.43,437.72Z"/><path class="cls-8" d="M826,495.68q1.25-1.38,3.72-4.55t5.46-7.18q3-4,6.07-8.55l5.86-8.63q2.76-4.06,4.76-7.45a29.86,29.86,0,0,0,2.56-5L849.74,442q-2.47-6.48-5.17-12.83T839.19,417a108.52,108.52,0,0,0-5.32-10.14,43.16,43.16,0,0,0-5-7q-2.42-2.62-4.35-2.62a2.94,2.94,0,0,0-1.24.34l-1.24.63c-.28.18-.6-.05-1-.69s-.37-1.06,0-1.25,1.45-1,3.24-2.07,3.8-2.27,6-3.52,4.34-2.36,6.41-3.38a12.15,12.15,0,0,1,4.49-1.51c.92,0,2,.82,3.24,2.48A40.37,40.37,0,0,1,848.3,395q2,4.22,4.2,9.59t4.42,11.25q2.21,5.86,4.35,11.8t4.07,11q1.78-2.76,4.62-7.87t5.45-10.9a116.59,116.59,0,0,0,4.49-11.45,31.59,31.59,0,0,0,1.86-9.52q0-4-1.93-5.73a6.3,6.3,0,0,0-4.28-1.73c-1.2,0-2.14,0-2.83.07a15.12,15.12,0,0,0-2.28.35,1.82,1.82,0,0,1-.82-.35,1.13,1.13,0,0,1-.56-1c0-.46,1-1,3-1.52s4.37-1.06,7-1.52,5.29-.85,7.86-1.17a51.55,51.55,0,0,1,5.39-.48,7.32,7.32,0,0,1,4.69,1.24A3.67,3.67,0,0,1,898.6,390a44.76,44.76,0,0,1-3.52,8.63q-2.7,5.31-6.42,11.59t-7.93,13q-4.22,6.7-8.08,12.63t-7,10.63q-3.1,4.69-4.48,6.9-2.76,4.28-5.25,8.9t-4.55,9.24q-2.07,4.64-3.66,8.84a48.92,48.92,0,0,0-2.27,7.65c-.28,1.39,0,2.28.76,2.7a4.63,4.63,0,0,0,3,.27,19,19,0,0,0,4.07-1.31,16,16,0,0,0,3.73-2.21c.46-.37.76-.43.89-.2a2,2,0,0,1,.21,1,4.35,4.35,0,0,1-.27,1.45,2.19,2.19,0,0,1-.69,1c-.1,0-1.16.41-3.18,1.24s-4.46,1.72-7.31,2.69-5.87,1.86-9,2.69a33.61,33.61,0,0,1-8.35,1.24c-2.3,0-3.45-.74-3.45-2.21a.89.89,0,0,1,.07-.41A.72.72,0,0,0,826,495.68Z"/><path class="cls-8" d="M1012.58,460.77a21.13,21.13,0,0,0-1-4.07,3.1,3.1,0,0,0-3.25-2.14c-1.38,0-3.24.07-5.59.21s-4.85.32-7.52.55-5.33.41-8,.55-5,.21-7,.21a60.56,60.56,0,0,1-21.25-3.45,45,45,0,0,1-15.6-9.52,40.11,40.11,0,0,1-9.66-14.56,51.19,51.19,0,0,1-3.31-18.7q0-14.22,4.56-24.5a46.75,46.75,0,0,1,12.28-16.9,49.25,49.25,0,0,1,17.8-9.73,71.27,71.27,0,0,1,21.11-3.11q3.31,0,7.18.21t7.31.55q3.45.35,6.08.69c1.74.23,3,.44,3.72.62.46.1.92-.69,1.38-2.34s1-3.47,1.73-5.45a37.5,37.5,0,0,1,2.41-5.52c.92-1.71,2-2.56,3.31-2.56a9.4,9.4,0,0,1,3.32,1.52c.64.55.32,1.29-1,2.21a19.55,19.55,0,0,0-5.31,6.69,55.59,55.59,0,0,0-3.8,10.15,39.83,39.83,0,0,0-1.45,5.1q-.75,3.31-1.31,7.45c-.18.74-.76,1.09-1.72,1s-1.64-.71-2-2a16,16,0,0,0-2.63-4.35,23.93,23.93,0,0,0-5.1-4.62,29.43,29.43,0,0,0-7.59-3.66,31.72,31.72,0,0,0-9.94-1.45,20.66,20.66,0,0,0-11.31,3.24,31.37,31.37,0,0,0-8.84,8.56,45.27,45.27,0,0,0-5.93,12.14A56,56,0,0,0,952,398a35.44,35.44,0,0,0,4.62.55c2.35.19,4.9.32,7.66.42s5.43.16,8,.2,4.51,0,5.8-.07c2.94,0,5.84-.13,8.69-.41a73.91,73.91,0,0,0,7.87-1.17,45,45,0,0,0,6.21-1.73,10.39,10.39,0,0,0,3.73-2.07,1.51,1.51,0,0,1,1.58-.69,2,2,0,0,1,1.45.69,29.67,29.67,0,0,1-1,3.24q-.69,2-1.52,4.63a44,44,0,0,0-1.38,5.79,38.52,38.52,0,0,0-.55,6.63c-.19.92-.72,1.19-1.59.83a2.5,2.5,0,0,1-1.59-1.52,5.42,5.42,0,0,0-2.69-3.45,17.3,17.3,0,0,0-5.52-1.87,53.62,53.62,0,0,0-7.66-.76q-4.27-.14-9.24-.13-9.39,0-15.11.13t-8.08.28a71.38,71.38,0,0,0,.62,9,56.75,56.75,0,0,0,2.14,9.66,50,50,0,0,0,4,9.32,32.57,32.57,0,0,0,6.21,8,27.77,27.77,0,0,0,8.9,5.59,31.93,31.93,0,0,0,11.93,2.07A37.64,37.64,0,0,0,997,449.52a33.69,33.69,0,0,0,8.41-3.86,26.87,26.87,0,0,0,5.59-4.76,17.91,17.91,0,0,0,3-4.42c.28-.28.46-.41.55-.41a2.76,2.76,0,0,1,1.31.41,1.25,1.25,0,0,1,.76,1.11c-.27,1-.55,2.11-.83,3.31a40.32,40.32,0,0,0-.69,7.86c0,2.4.09,4.74.28,7a28.93,28.93,0,0,0,1,5.8,5.7,5.7,0,0,1-2.42.48C1013.2,462,1012.76,461.6,1012.58,460.77Z"/><path class="cls-8" d="M1063.91,411.78a63.24,63.24,0,0,0-1.93-7.66,20.31,20.31,0,0,0-2.76-5.66,11,11,0,0,0-4-3.45,13,13,0,0,0-5.8-1.17,14,14,0,0,0-5.58,1.1,18.4,18.4,0,0,0-4.42,2.63,14.76,14.76,0,0,0-2.9,3,6.72,6.72,0,0,0-1.17,2.35,1.13,1.13,0,0,1-1.24,1.1,5.49,5.49,0,0,1-3.59-1.38,4.16,4.16,0,0,1-1.66-3.31,3.76,3.76,0,0,1,.28-1.66q3.16-1.79,7.73-3.86t9.45-3.87a90.65,90.65,0,0,1,9.73-3,37.32,37.32,0,0,1,8.69-1.17c3.87,0,6.83.55,8.9,1.65a10.7,10.7,0,0,1,4.63,4.69,19.56,19.56,0,0,1,1.86,7.11c.23,2.71.44,5.64.62,8.76.28,4.69.64,9.23,1.11,13.6a72.11,72.11,0,0,0,2.06,11.59,27,27,0,0,0,3.52,8.14,6.31,6.31,0,0,0,5.32,3.11,11.3,11.3,0,0,0,3.31-.56,27,27,0,0,0,3.45-1.31c1.1-.5,2.09-1,3-1.52s1.44-.85,1.72-1a1.42,1.42,0,0,1,1.52,1.24,2.63,2.63,0,0,1-.28,1.24,15.62,15.62,0,0,1-2.07,1.38c-1.19.74-2.67,1.61-4.41,2.63s-3.68,2.09-5.8,3.24S1089,452,1086.89,453s-4,1.84-5.73,2.49a12.87,12.87,0,0,1-4.13,1,4,4,0,0,1-3.11-1.45,12.51,12.51,0,0,1-2.28-3.86,35.67,35.67,0,0,1-1.65-5.59c-.46-2.12-.88-4.32-1.25-6.62-1.65,1.38-3.77,3-6.34,4.89a76.1,76.1,0,0,1-8.42,5.32,68,68,0,0,1-9.32,4.21,26.84,26.84,0,0,1-9.17,1.72,16.53,16.53,0,0,1-6.49-1.17,13.77,13.77,0,0,1-4.62-3.11,12.07,12.07,0,0,1-2.76-4.48,15.84,15.84,0,0,1-.9-5.31,10.11,10.11,0,0,1,2.69-7.25,33.77,33.77,0,0,1,8.35-5.86q2.63-1.38,7.31-3.66t9.6-4.62q4.89-2.36,9.1-4.49C1060.58,413.73,1062.63,412.61,1063.91,411.78Zm4,21.39c-.28-1.56-.56-3.27-.83-5.11s-.55-3.59-.83-5.24-.53-3.08-.76-4.28-.39-2-.48-2.34q-2.2.82-5,1.93c-1.84.73-3.68,1.54-5.52,2.41s-3.59,1.75-5.24,2.62a47.07,47.07,0,0,0-4.14,2.42,20.28,20.28,0,0,0-4.83,4.14,7.68,7.68,0,0,0-1.66,5,11.12,11.12,0,0,0,2.35,7q2.34,3,7.31,3a16.89,16.89,0,0,0,5.45-1,41.39,41.39,0,0,0,5.25-2.21,37.93,37.93,0,0,0,4.2-2.49,18.91,18.91,0,0,0,2.49-1.93c.73-.73,1.31-1.36,1.72-1.86A2.82,2.82,0,0,0,1067.92,433.17Z"/><path class="cls-8" d="M1099.1,451.25a6.92,6.92,0,0,0-2.07,2.27,13.51,13.51,0,0,0-1.24,2.42,1.27,1.27,0,0,1-.76.48,3.21,3.21,0,0,1-.89.21,1.1,1.1,0,0,1-1.25-1.24,7.26,7.26,0,0,1,1.11-2.21q.82-1.38,2.62-4.35l3.66-6.07c1.24-2.07,2.39-3.95,3.45-5.66a34.5,34.5,0,0,1,2.27-3.38,1.32,1.32,0,0,1,1.66-.21c.64.33.83.72.55,1.18a1.69,1.69,0,0,0-.41.69,4.5,4.5,0,0,0-.14,1.38c0,.83.71,1.86,2.14,3.1a27.81,27.81,0,0,0,5.45,3.59,44.24,44.24,0,0,0,7.31,3,26.72,26.72,0,0,0,7.87,1.24,9.9,9.9,0,0,0,7.24-2.62,9.18,9.18,0,0,0,2.69-6.9q0-4.83-3-7.18a21.73,21.73,0,0,0-7.52-3.59,80.58,80.58,0,0,0-9.8-2,54.38,54.38,0,0,1-9.8-2.27,20.09,20.09,0,0,1-7.52-4.42c-2-1.93-3-4.74-3-8.42a15.54,15.54,0,0,1,3-8.69,30.33,30.33,0,0,1,7.87-7.87,45.25,45.25,0,0,1,11.25-5.66,40,40,0,0,1,13.24-2.2,32.49,32.49,0,0,1,4.83.41q2.76.42,5.45,1c1.8.42,3.45.83,5,1.25s2.65.76,3.38,1c.19,0,.14.37-.13,1.1a19.4,19.4,0,0,1-2.08,3.8,61.57,61.57,0,0,1-3.65,5c-1.34,1.65-2.58,3.13-3.73,4.41s-2,1.94-2.41,1.94h-.83a1.39,1.39,0,0,1-1-.28,9.61,9.61,0,0,0,.14-1.79,8.59,8.59,0,0,0-4.35-7.6q-4.33-2.74-12.62-2.75a9.33,9.33,0,0,0-6.56,2.34,7.42,7.42,0,0,0-2.55,5.66q0,5.38,3,8a20,20,0,0,0,7.59,3.94,67.86,67.86,0,0,0,9.8,2,56.11,56.11,0,0,1,9.8,2.14,19.13,19.13,0,0,1,7.59,4.34c2,1.94,3,4.83,3,8.7a12.34,12.34,0,0,1-1.11,5.1,21,21,0,0,1-2.89,4.7,31.45,31.45,0,0,1-4,4.07,38.73,38.73,0,0,1-4.41,3.24c-1.38.92-3,1.86-4.69,2.83a56.12,56.12,0,0,1-5.66,2.69,42,42,0,0,1-6.21,2,27.62,27.62,0,0,1-6.35.76,30,30,0,0,1-4.83-.62q-3.32-.63-6.69-1.45t-6-1.59A8.53,8.53,0,0,1,1099.1,451.25Z"/><path class="cls-8" d="M1227.86,435.51c.18-.18.34-.15.48.07a2.34,2.34,0,0,1,.27,1,4.19,4.19,0,0,1-.06,1.31A2.17,2.17,0,0,1,1228,439a61.94,61.94,0,0,1-6.9,5.52q-4.14,2.89-8.55,5.38c-.83.46-2,1.06-3.45,1.79s-3.11,1.45-4.9,2.14a53.88,53.88,0,0,1-5.52,1.79,20.42,20.42,0,0,1-5.31.76,23.11,23.11,0,0,1-9.39-1.93,24.56,24.56,0,0,1-7.73-5.31,24.3,24.3,0,0,1-5.17-8.07,27.51,27.51,0,0,1-1.86-10.22,37,37,0,0,1,1.65-11.17,59.57,59.57,0,0,1,3.8-9.39,66.2,66.2,0,0,1,4.07-7,40.06,40.06,0,0,0,2.62-4.21c-1.75-.09-3.34-.16-4.76-.2s-2.78-.07-4.07-.07q-4.43,0-7.45.07a25.78,25.78,0,0,0-5.39.62,5.09,5.09,0,0,0-2.07,1.1,12.14,12.14,0,0,1-1.65,1.24c-.19-.18-.44-.43-.76-.76a1.44,1.44,0,0,1-.48-1,.56.56,0,0,1,.13-.41,10.17,10.17,0,0,1,1.8-1.59c1.19-1,2.69-2.12,4.48-3.45l5.94-4.42q3.24-2.42,6.21-4.48c2-1.38,3.68-2.56,5.1-3.52a21.23,21.23,0,0,1,2.83-1.73,1.84,1.84,0,0,1,1.66.28c.55.37.73.64.55.83a11.35,11.35,0,0,0-1.24,1c-.55.51-.74,1-.55,1.31a14.18,14.18,0,0,0,5.24,2.21,70.48,70.48,0,0,0,8.42,1.59c3.12.41,6.35.74,9.66,1s6.3.35,9,.35c3.95,0,7.13-.12,9.52-.35a43.75,43.75,0,0,0,5.93-.89,29.8,29.8,0,0,0,2.9-.83c.09,0,.28.14.55.41a1.33,1.33,0,0,1,.42,1c0,.18-.67.64-2,1.38s-2.69,1.52-4.07,2.35c-.83.46-1.82,1.05-3,1.79s-2.39,1.45-3.73,2.14a38.27,38.27,0,0,1-4.21,1.86,15,15,0,0,1-4.27,1c-1.38.18-3,.32-4.83.41s-3.78.16-5.8.21l-6.14.14c-2.07,0-4,.07-5.73.07-.27.46-.71,1.22-1.31,2.27a23.47,23.47,0,0,0-1.72,4.07,53.57,53.57,0,0,0-1.52,5.66,32.53,32.53,0,0,0-.69,6.9A30.37,30.37,0,0,0,1186,429a24.73,24.73,0,0,0,4.83,8.21,21.84,21.84,0,0,0,7.39,5.38,22.15,22.15,0,0,0,9.24,1.94,22.41,22.41,0,0,0,5.59-.69,30,30,0,0,0,5.11-1.8,37.73,37.73,0,0,0,8.07-5Z"/><path class="cls-8" d="M1291.47,438.55c-1,1.11-2.57,2.62-4.69,4.56a58.51,58.51,0,0,1-7.66,5.79,52.39,52.39,0,0,1-10,5,33.13,33.13,0,0,1-11.73,2.07,35.88,35.88,0,0,1-11-1.73,28.86,28.86,0,0,1-9.66-5.24,25.17,25.17,0,0,1-6.83-9,30.39,30.39,0,0,1-2.56-13,60,60,0,0,1,.83-10.7,40.11,40.11,0,0,1,2.21-7.86,28.33,28.33,0,0,1,3.1-5.8,43.56,43.56,0,0,1,3.52-4.34,30.62,30.62,0,0,1,5.38-4.7,53.1,53.1,0,0,1,6.84-4,39.93,39.93,0,0,1,7.72-2.83,33.22,33.22,0,0,1,8.21-1q7.46,0,11.67,2.48a7.68,7.68,0,0,1,4.2,6.9,8.72,8.72,0,0,1-1.65,5.11,31.54,31.54,0,0,0,3.52-1.38c1.42-.65,2.87-1.31,4.34-2l3.94-1.87a14.87,14.87,0,0,0,2.27-1.24.7.7,0,0,1,.63-.21.44.44,0,0,1,.34.49,5.76,5.76,0,0,1-.69,3,5.83,5.83,0,0,1-1.66,1.87q-2.2,1.38-6.34,3.45t-9.18,4.34q-5,2.28-10.42,4.56t-10.14,4.35q-4.77,2.07-8.28,3.65t-4.76,2.28a20.8,20.8,0,0,0,1.86,8.76,21.9,21.9,0,0,0,5.17,7.11,24.15,24.15,0,0,0,7.94,4.76A28.78,28.78,0,0,0,1268,443.8a35.87,35.87,0,0,0,9-1,37.64,37.64,0,0,0,6.76-2.35,38.06,38.06,0,0,0,4.35-2.34,11.37,11.37,0,0,1,1.73-1,1.67,1.67,0,0,1,1.1.49A1.36,1.36,0,0,1,1291.47,438.55Zm-48.57-21.11q2.34-.82,5.31-2c2-.78,3.91-1.64,5.8-2.56s3.6-1.79,5.17-2.62a25.45,25.45,0,0,0,3.59-2.21c1.65-1.19,2.48-3.22,2.48-6.07a10.41,10.41,0,0,0-.62-3.45,9.81,9.81,0,0,0-1.86-3.24,9.58,9.58,0,0,0-3-2.35,8.9,8.9,0,0,0-4-.89,8.11,8.11,0,0,0-4.14,1.31,13.25,13.25,0,0,0-4.14,4.27,27.52,27.52,0,0,0-3.24,7.87A46.54,46.54,0,0,0,1242.9,417.44Z"/><path class="cls-8" d="M1355.5,396.05q-1.51,1.24-3.59,3.1c-1.38,1.24-2.82,2.44-4.34,3.59a34.62,34.62,0,0,1-4.62,3,9.73,9.73,0,0,1-4.56,1.24,6.62,6.62,0,0,1-3.45-.9,26.52,26.52,0,0,1-2.83-1.93c-.87-.69-1.72-1.33-2.55-1.93a4.4,4.4,0,0,0-2.62-.9,7.88,7.88,0,0,0-6.28,3,23.31,23.31,0,0,0-4.14,7.73,55.38,55.38,0,0,0-2.35,10.21,77.37,77.37,0,0,0-.76,10.62,56.61,56.61,0,0,0,.35,7,16.15,16.15,0,0,0,1,4.28,3.94,3.94,0,0,0,1.87,2.14,6.55,6.55,0,0,0,2.83.55,15,15,0,0,0,3.86-.55c.27-.09.48.09.62.55a4,4,0,0,1,.21,1.1q0,.29-.42.63a1.26,1.26,0,0,1-.55.34q-3,1.25-6.21,2.69c-2.12,1-3.86,1.77-5.24,2.42s-2.83,1.15-4.63,1.79a14.15,14.15,0,0,1-4.62,1,8.54,8.54,0,0,1-3.66-.69c-1-.46-1.45-.92-1.45-1.38a2.33,2.33,0,0,1,.35-1.25,6.31,6.31,0,0,0,.62-2.06c.18-1.38.39-3,.62-4.9s.46-3.94.69-6.14.42-4.49.55-6.84.21-4.66.21-7q0-7.74-.48-13.12a34.29,34.29,0,0,0-1.73-8.69,8.45,8.45,0,0,0-8.83-6.21h-1.24a4.69,4.69,0,0,0-1.11.14.73.73,0,0,1-.82-.83,1.32,1.32,0,0,1,.82-1.24c1-.64,2.58-1.59,4.7-2.83s4.3-2.44,6.55-3.59,4.44-2.18,6.56-3.1a13.42,13.42,0,0,1,4.69-1.38,4.25,4.25,0,0,1,3,1.17,7.3,7.3,0,0,1,1.87,3,19.61,19.61,0,0,1,.89,4.07,36,36,0,0,1,.28,4.48c0,1.11,0,2.26-.07,3.45s-.07,2.49-.07,3.87a104.3,104.3,0,0,1,11.18-14.15q5-5,9.38-5a4.94,4.94,0,0,1,3.25,1.38q1.57,1.38,3.38,3.1a32.7,32.7,0,0,0,3.73,3.11,6.76,6.76,0,0,0,4,1.37,6.14,6.14,0,0,0,2.62-.41l1.38-.69c.73,0,1.1.51,1.1,1.52Z"/></g></g></svg>