<svg xmlns="http://www.w3.org/2000/svg" viewBox="0 0 88.16 123.57"><defs><style>.cls-1{fill:#fff;}.cls-2{fill:#ffccd3;}.cls-3,.cls-5{fill:none;stroke-miterlimit:10;}.cls-3{stroke:#8c6239;stroke-width:0.82px;}.cls-4{fill:#a67c52;}.cls-5{stroke:#a67c52;}</style></defs><title>MainRab</title><g id="Layer_2" data-name="Layer 2"><g id="Layer_1-2" data-name="Layer 1"><ellipse class="cls-1" cx="65.57" cy="27.39" rx="7.95" ry="29.93" transform="translate(0.87 56.77) rotate(-47.1)"/><ellipse class="cls-1" cx="55.37" cy="36.35" rx="7.95" ry="29.93" transform="translate(-8.95 52.17) rotate(-47.1)"/><ellipse class="cls-2" cx="63.7" cy="27.39" rx="5.25" ry="26.25" transform="translate(1.19 57.4) rotate(-48.91)"/><ellipse class="cls-2" cx="52.87" cy="35.14" rx="5.25" ry="26.25" transform="translate(-8.36 51.9) rotate(-48.91)"/><path class="cls-1" d="M54.39,112.26c10.38-4.88,10.75-12.38,10.75-12.38,2.38-9.12-6-13.75-6-13.75C64,63.88,51.89,49.88,51.89,49.88c14.38-13,4.63-26.62,4.63-26.62C54,1.63,33.27.51,33.27.51,25.77-2.74,13,10.76,13,10.76c-19.5,13.25-3.25,32-3.25,32L14,47.51C-1,66.63,6.14,85.76,6.14,85.76c-12,8.62-2.72,20.87-2.72,20.87C15.89,121.51,54.39,112.26,54.39,112.26Z"/><circle class="cls-1" cx="36.71" cy="113.73" r="9.83"/><path class="cls-3" d="M45.9,111.71c-2.07-10.94-12.69-8.32-12.69-8.32-4.27,1-5.18,6.28-5.18,6.28"/><ellipse class="cls-4" cx="39.7" cy="23.66" rx="1.63" ry="3"/><path class="cls-5" d="M18.35,21.56c-.58,2.67,3,5.67,6,2.09"/><line class="cls-5" x1="19.9" y1="24.88" x2="19.82" y2="29.5"/><path class="cls-5" d="M17.66,27.65c.29,2.91,4.5,2.7,5.41,1.25"/></g></g></svg>