<svg xmlns="http://www.w3.org/2000/svg" viewBox="0 0 196.87 550.13"><defs><style>.cls-1,.cls-8{fill:#ffed74;}.cls-2,.cls-4{fill:#fff;}.cls-2,.cls-8{stroke:#000;stroke-miterlimit:10;}.cls-2{stroke-width:0.46px;}.cls-3{fill:#6fcfeb;}.cls-5,.cls-6,.cls-7{fill:#ff9fe5;}.cls-6{opacity:0.61;}.cls-7{opacity:0.48;}.cls-8{stroke-width:0.61px;}</style></defs><title>Asset 18</title><g id="Layer_2" data-name="Layer 2"><g id="Layer_1-2" data-name="Layer 1"><ellipse class="cls-1" cx="100.32" cy="258.4" rx="96.54" ry="67.2"/><ellipse class="cls-1" cx="27.44" cy="114.53" rx="23.66" ry="114.53"/><ellipse class="cls-1" cx="169.42" cy="114.53" rx="23.66" ry="114.53"/><circle class="cls-2" cx="51.11" cy="245.15" r="13.25"/><circle class="cls-2" cx="145.76" cy="245.15" r="13.25"/><circle class="cls-3" cx="145.76" cy="245.15" r="4.22"/><circle class="cls-4" cx="145.76" cy="245.15" r="1.04"/><circle class="cls-3" cx="51.11" cy="245.15" r="4.22"/><circle class="cls-4" cx="51.11" cy="245.15" r="1.04"/><ellipse class="cls-5" cx="27.44" cy="129.29" rx="6.3" ry="68.74"/><ellipse class="cls-5" cx="169.42" cy="122.46" rx="6.3" ry="68.74"/><ellipse class="cls-5" cx="98.32" cy="263.56" rx="3.03" ry="5.16"/><ellipse class="cls-1" cx="101.35" cy="429.77" rx="74.61" ry="120.36"/><ellipse class="cls-6" cx="103.09" cy="433.46" rx="29.42" ry="57.36"/><path class="cls-4" d="M132.45,295.07c0,6.56-24.34,21.17-35.27,21.17s-23.46-18.36-23.46-24.92,12.54,1.19,23.46,1.19c9.56,0,33.16-3.62,35,1.79C132.45,295.07,132.45,294.25,132.45,295.07Z"/><ellipse class="cls-7" cx="38.25" cy="290.16" rx="6.13" ry="7.21"/><ellipse class="cls-7" cx="169.42" cy="290.16" rx="6.13" ry="7.21"/><ellipse class="cls-8" cx="56.76" cy="509.62" rx="16.91" ry="33.97"/><ellipse class="cls-8" cx="144.72" cy="509.62" rx="16.91" ry="33.97"/><circle class="cls-5" cx="57.06" cy="528.65" r="6.03"/><circle class="cls-5" cx="144.72" cy="531.1" r="6.03"/><circle class="cls-5" cx="48.32" cy="511.32" r="3.63"/><circle class="cls-5" cx="66.71" cy="511.32" r="3.63"/><circle class="cls-5" cx="136.72" cy="514.95" r="3.63"/><circle class="cls-5" cx="154.1" cy="514.95" r="3.63"/><circle class="cls-5" cx="145.41" cy="507.7" r="3.63"/><circle class="cls-5" cx="57.06" cy="506.93" r="3.63"/><ellipse class="cls-1" cx="26.74" cy="385.3" rx="42.51" ry="14.67" transform="translate(-307.46 191.69) rotate(-55.95)"/><ellipse class="cls-1" cx="171.01" cy="384.86" rx="14.67" ry="42.51" transform="translate(-177.06 147.77) rotate(-31.78)"/></g></g></svg>