<svg xmlns="http://www.w3.org/2000/svg" viewBox="0 0 166.02 172.94"><defs><style>.cls-1{fill:#fff;}.cls-2{fill:#ffbbb0;}.cls-3{fill:#4d4d4d;}.cls-4{fill:none;stroke:#4d4d4d;stroke-miterlimit:10;stroke-width:4px;}</style></defs><title>RAbbit1</title><g id="Layer_2" data-name="Layer 2"><g id="Layer_1-2" data-name="Layer 1"><path class="cls-1" d="M28.21,67.17,21,54.67l-4.83-9.84c-4.5-7.83-5.5-20-5.5-20,1.33-15.16,8-18.16,8-18.16C34.21-3.5,43,6.67,43,6.67,58,19.33,57.71,35.83,57.71,35.83a48.09,48.09,0,0,1-3,24.34Z"/><path class="cls-2" d="M29.77,61.14,25.56,51l-2.85-8c-2.65-6.38-3.24-16.29-3.24-16.29.79-12.36,4.71-14.81,4.71-14.81,9.13-8.28,14.33,0,14.33,0,8.83,10.32,8.63,23.77,8.63,23.77a52.82,52.82,0,0,1-1.76,19.82Z"/><path class="cls-1" d="M126.59,65l7.17-12.5,4.83-9.83c4.5-7.84,5.5-20,5.5-20-1.33-15.17-8-18.17-8-18.17-15.5-10.17-24.33,0-24.33,0-15,12.67-14.67,29.17-14.67,29.17a48.06,48.06,0,0,0,3,24.33Z"/><path class="cls-2" d="M122.78,59,127,48.81l2.85-8c2.65-6.38,3.24-16.29,3.24-16.29-.79-12.36-4.71-14.81-4.71-14.81-9.13-8.28-14.33,0-14.33,0-8.83,10.32-8.63,23.77-8.63,23.77a52.7,52.7,0,0,0,1.77,19.82Z"/><path class="cls-1" d="M144,100c-3.43,27.08-28.87,58.09-64.5,58.09S20.63,123.77,15,100c-7.4-31.21,28.88-58.08,64.5-58.08S148,68.17,144,100Z"/><circle class="cls-3" cx="50" cy="96.58" r="11.17"/><circle class="cls-3" cx="112.16" cy="96.58" r="11.17"/><circle class="cls-1" cx="52.85" cy="94.66" r="5.33"/><circle class="cls-1" cx="109.36" cy="94.66" r="5.33"/><circle class="cls-1" cx="45.27" cy="100.9" r="3.25"/><circle class="cls-1" cx="117.1" cy="100.9" r="3.25"/><path class="cls-2" d="M84.5,115.9a5.62,5.62,0,0,1-5,3.15,5.89,5.89,0,0,1-5-3.15c-.9-1.49,2.24-3.15,5-3.15S85.35,114.39,84.5,115.9Z"/><path class="cls-4" d="M70.56,128.38c5.25,7.63,9.12,0,9.12,0,4.06,7.25,8.75,0,8.75,0"/><path class="cls-1" d="M127.08,161.8c0-9.37,8-15.75,8-15.75,18.62-8.12,25,3.75,25,3.75,13.37,11.75,0,18.75,0,18.75-3.38,2.75-6.75,0-6.75,0-1,4.88-9,4.25-9,4.25-3.38,1.13-6-4.87-6-4.87C129.33,172.05,127.08,161.8,127.08,161.8Z"/><path class="cls-1" d="M0,161.8c0-9.37,8-15.75,8-15.75,18.62-8.12,25,3.75,25,3.75,13.38,11.75,0,18.75,0,18.75-3.38,2.75-6.75,0-6.75,0-1,4.88-9,4.25-9,4.25-3.37,1.13-6-4.87-6-4.87C2.25,172.05,0,161.8,0,161.8Z"/></g></g></svg>